<svg width="60" height="60" viewBox="0 0 60 60" fill="none" xmlns="http://www.w3.org/2000/svg">
<path d="M40.9393 21.4393C41.5251 20.8536 42.4746 20.8536 43.0604 21.4393C43.6462 22.0251 43.6462 22.9746 43.0604 23.5604L28.0604 38.5604C27.4746 39.1462 26.5251 39.1462 25.9393 38.5604L16.9393 29.5604C16.3536 28.9746 16.3536 28.0251 16.9393 27.4393C17.4885 26.8902 18.357 26.8563 18.9462 27.3368L19.0604 27.4393L26.9999 35.3788L40.9393 21.4393Z" fill="black"/>
<path d="M54 30C54 16.7452 43.2548 6 30 6C16.7452 6 6 16.7452 6 30C6 43.2548 16.7452 54 30 54V57C15.0883 57 3 44.9117 3 30C3 15.0883 15.0883 3 30 3C44.9117 3 57 15.0883 57 30C57 44.9117 44.9117 57 30 57V54C43.2548 54 54 43.2548 54 30Z" fill="black"/>
</svg>
