<svg width="36" height="36" viewBox="0 0 36 36" fill="none" xmlns="http://www.w3.org/2000/svg">
<path d="M6 11H28V16.6046C28 18.8433 27.5302 21.057 26.621 23.1028L25.0558 26.6246C24.4137 28.0691 22.9813 29 21.4005 29H12.5995C11.0187 29 9.58625 28.0691 8.94425 26.6246L7.37902 23.1028C6.4698 21.057 6 18.8433 6 16.6046L6 11Z" stroke="black" stroke-width="2" stroke-linejoin="round"/>
<path d="M28 14H32C33.6569 14 35 15.3431 35 17V17C35 20.3137 32.3137 23 29 23H26" stroke="black" stroke-width="2" stroke-linejoin="round"/>
<path d="M14 7V6.11803C14 5.43283 14.3871 4.80643 15 4.5V4.5C15.6129 4.19357 16 3.56717 16 2.88197V2" stroke="black" stroke-width="2" stroke-linecap="round" stroke-linejoin="round"/>
<path d="M20 7V6.11803C20 5.43283 20.3871 4.80643 21 4.5V4.5C21.6129 4.19357 22 3.56717 22 2.88197V2" stroke="black" stroke-width="2" stroke-linecap="round" stroke-linejoin="round"/>
<path d="M6 29H28L27.1056 30.7889C26.428 32.144 25.043 33 23.5279 33H10.4721C8.95705 33 7.572 32.144 6.89443 30.7889L6 29Z" stroke="black" stroke-width="2" stroke-linejoin="round"/>
</svg>
