<svg width="28" height="28" viewBox="0 0 28 28" fill="none" xmlns="http://www.w3.org/2000/svg">
<path d="M22.2929 4.29302C22.6834 3.90249 23.3164 3.90249 23.707 4.29302C24.0975 4.68354 24.0975 5.31655 23.707 5.70708L5.70696 23.7071C5.31643 24.0976 4.68342 24.0976 4.29289 23.7071C3.90237 23.3166 3.90237 22.6835 4.29289 22.293L22.2929 4.29302Z" fill="#E85555"/>
<path d="M5.70711 4.29302C5.31658 3.90249 4.68357 3.90249 4.29305 4.29302C3.90252 4.68354 3.90252 5.31655 4.29305 5.70708L22.293 23.7071C22.6836 24.0976 23.3166 24.0976 23.7071 23.7071C24.0976 23.3166 24.0976 22.6835 23.7071 22.293L5.70711 4.29302Z" fill="#E85555"/>
</svg>
