<svg width="56" height="56" viewBox="0 0 56 56" fill="none" xmlns="http://www.w3.org/2000/svg">
<rect width="56" height="56" rx="10" fill="#E3F2D9"/>
<g style="mix-blend-mode:multiply">
<rect width="36" height="36" transform="translate(10 10)" fill="white"/>
<path d="M25.2341 28.5467C28.2939 33.726 26.6862 40.2313 25.5402 40.878C24.3942 41.5246 17.8256 39.6326 14.7659 34.4533C11.7061 29.274 13.3138 22.7687 14.4598 22.122C15.6058 21.4754 22.1744 23.3674 25.2341 28.5467Z" fill="white" stroke="black" stroke-width="2"/>
<path d="M30.7659 28.5467C27.7061 33.726 29.3138 40.2313 30.4598 40.878C31.6058 41.5246 38.1744 39.6326 41.2341 34.4533C44.2939 29.274 42.6862 22.7687 41.5402 22.122C40.3942 21.4754 33.8256 23.3674 30.7659 28.5467Z" fill="white" stroke="black" stroke-width="2"/>
<path d="M34 26C34 32.0751 29.3137 37 28 37C26.6863 37 22 32.0751 22 26C22 19.9249 26.6863 15 28 15C29.3137 15 34 19.9249 34 26Z" stroke="black" stroke-width="2"/>
</g>
</svg>
