<svg width="56" height="56" viewBox="0 0 56 56" fill="none" xmlns="http://www.w3.org/2000/svg">
<rect width="56" height="56" rx="10" fill="#E5EFF6"/>
<g style="mix-blend-mode:multiply">
<path d="M20.0801 32.3201L27.258 35.6672L22.998 44.8028L20.0176 41.8241L15.8201 41.4557L20.0801 32.3201Z" stroke="black" stroke-width="2" stroke-linejoin="round"/>
<path d="M35.9199 32.3201L28.742 35.6672L33.002 44.8028L35.9824 41.8241L40.1799 41.4557L35.9199 32.3201Z" stroke="black" stroke-width="2" stroke-linejoin="round"/>
<path d="M27.0633 11.5225C27.6024 11.0606 28.3978 11.0606 28.9369 11.5225L30.6146 12.9597C30.9457 13.2434 31.3874 13.3617 31.816 13.2816L33.9875 12.8758C34.6854 12.7454 35.3742 13.1431 35.6101 13.8127L36.3444 15.8962C36.4894 16.3073 36.8127 16.6307 37.2239 16.7756L39.3074 17.5099C39.977 17.7459 40.3747 18.4347 40.2442 19.1326L39.8384 21.3041C39.7583 21.7326 39.8767 22.1744 40.1603 22.5055L41.5975 24.1831C42.0594 24.7223 42.0594 25.5176 41.5975 26.0568L40.1603 27.7345C39.8767 28.0656 39.7583 28.5073 39.8384 28.9359L40.2442 31.1074C40.3747 31.8052 39.977 32.494 39.3074 32.73L37.2239 33.4643C36.8127 33.6092 36.4894 33.9326 36.3444 34.3438L35.6101 36.4273C35.3742 37.0969 34.6854 37.4945 33.9875 37.3641L31.816 36.9583C31.3874 36.8782 30.9457 36.9966 30.6146 37.2802L28.9369 38.7174C28.3978 39.1793 27.6024 39.1793 27.0633 38.7174L25.3856 37.2802C25.0545 36.9966 24.6128 36.8782 24.1842 36.9583L22.0127 37.3641C21.3148 37.4945 20.626 37.0969 20.3901 36.4273L19.6558 34.3438C19.5108 33.9326 19.1875 33.6092 18.7763 33.4643L16.6928 32.73C16.0232 32.494 15.6255 31.8052 15.756 31.1074L16.1618 28.9359C16.2419 28.5073 16.1235 28.0656 15.8399 27.7345L14.4027 26.0568C13.9408 25.5176 13.9408 24.7223 14.4027 24.1831L15.8399 22.5055C16.1235 22.1744 16.2419 21.7326 16.1618 21.3041L15.756 19.1326C15.6255 18.4347 16.0232 17.7459 16.6928 17.5099L18.7763 16.7756C19.1875 16.6307 19.5108 16.3073 19.6558 15.8962L20.3901 13.8127C20.626 13.1431 21.3148 12.7454 22.0127 12.8758L24.1842 13.2816C24.6128 13.3617 25.0545 13.2434 25.3856 12.9597L27.0633 11.5225Z" fill="white" stroke="black" stroke-width="2" stroke-linejoin="round"/>
<path d="M24.3999 25.12L27.2799 28L32.3199 22.96" stroke="black" stroke-width="2" stroke-linecap="round" stroke-linejoin="round"/>
</g>
</svg>
