<svg width="57" height="56" viewBox="0 0 57 56" fill="none" xmlns="http://www.w3.org/2000/svg">
<rect x="0.333496" width="56" height="56" rx="10" fill="#F4EEE2"/>
<g style="mix-blend-mode:multiply" clip-path="url(#clip0_2432_6513)">
<path d="M41.2934 11.4399L41.6912 12.5151C42.0558 13.5005 42.8328 14.2775 43.8182 14.6421L44.8934 15.0399L43.8182 15.4378C42.8328 15.8024 42.0558 16.5793 41.6912 17.5647L41.2934 18.6399L40.8955 17.5647C40.5309 16.5793 39.754 15.8024 38.7686 15.4378L37.6934 15.0399L38.7686 14.6421C39.754 14.2775 40.5309 13.5005 40.8955 12.5151L41.2934 11.4399Z" fill="white" stroke="black" stroke-width="2"/>
<path d="M15.3734 37.3601L15.7713 38.4353C16.1359 39.4207 16.9128 40.1976 17.8982 40.5622L18.9734 40.9601L17.8982 41.358C16.9128 41.7226 16.1359 42.4995 15.7713 43.4849L15.3734 44.5601L14.9756 43.4849C14.6109 42.4995 13.834 41.7226 12.8486 41.358L11.7734 40.9601L12.8486 40.5622C13.834 40.1976 14.6109 39.4207 14.9756 38.4353L15.3734 37.3601Z" fill="white" stroke="black" stroke-width="2"/>
<path d="M21.0244 30.8799C20.4522 30.8799 20.1086 30.2448 20.4218 29.7659L30.0568 15.0299C30.4833 14.3776 31.4978 14.7736 31.3696 15.5423L29.9131 24.2815C29.8399 24.7204 30.1784 25.1199 30.6233 25.1199H35.6423C36.2145 25.1199 36.5581 25.7551 36.245 26.2339L26.6099 40.9699C26.1834 41.6222 25.169 41.2263 25.2971 40.4575L26.7536 31.7183C26.8268 31.2794 26.4883 30.8799 26.0434 30.8799H21.0244Z" stroke="black" stroke-width="2"/>
</g>
<defs>
<clipPath id="clip0_2432_6513">
<rect width="36" height="36" fill="white" transform="translate(10.3335 10)"/>
</clipPath>
</defs>
</svg>
