<svg width="30" height="30" viewBox="0 0 30 30" fill="none" xmlns="http://www.w3.org/2000/svg">
<path d="M16.8174 29.8925C24.2445 28.9953 30 22.6709 30 15.0018C29.9997 6.71781 23.2841 0.00184631 15 0.00184631C6.7159 0.00184631 0.000261598 6.71781 0 15.0018C0 22.0361 4.84221 27.939 11.375 29.5604V19.5858H8.28223V15.0018H11.375V13.0263C11.3751 7.92106 13.6861 5.55458 18.6982 5.55458C18.8149 5.55458 18.9418 5.5581 19.0762 5.56337C19.3664 5.57473 19.6908 5.59791 20.0186 5.6288C20.4417 5.66871 20.87 5.72295 21.2373 5.78212C21.5269 5.82874 21.7789 5.87733 21.96 5.92763V10.0829H21.959C21.78 10.0641 21.5343 10.0502 21.2363 10.0409C20.9453 10.0318 20.6038 10.0282 20.2266 10.0282C17.7674 10.0284 16.8174 10.9596 16.8174 13.3817V15.0018H21.7168L20.875 19.5858H16.8174V29.8925Z" fill="black"/>
</svg>
