<svg width="40" height="40" viewBox="0 0 40 40" fill="none" xmlns="http://www.w3.org/2000/svg">
<g clip-path="url(#clip0_220_9070)">
<path d="M21.5644 0.0682478L17.3214 1.37822C5.2687 6.58074 4.16571 23.6534 15.6569 30.2607C25.4234 35.8769 37.648 30.0366 39.6277 19.0657C39.8397 18.8531 39.897 19.08 39.9228 19.284C40.4585 23.5155 38.2267 29.2093 35.6254 32.4928C25.2916 45.5408 4.08549 40.7433 0.498613 24.5296C-2.44652 11.2145 8.05054 -1.02627 21.5644 0.0682478Z" fill="#C22839"/>
<path d="M9.86998 14.6843C11.0045 2.61593 26.2745 -2.46594 34.3708 6.5918C42.4871 15.6725 36.1298 29.7145 24.1631 30.2C23.7792 30.2143 23.0744 30.3292 22.8968 29.8983C27.4033 29.3439 31.3168 25.7328 32.2966 21.2887C34.5398 11.1336 23.3294 3.41168 14.7948 9.37835C11.821 11.4582 11.2996 13.3829 10.1307 16.5774C10.0734 16.7354 10.0791 17.017 9.86998 16.9825C9.92155 16.2356 9.80122 15.4168 9.86998 14.6814V14.6843Z" fill="#C22839"/>
<path d="M21.5643 9.71576L19.6878 10.4311C8.9214 17.3027 22.0685 31.0717 29.3368 20.5517L30.2966 18.2478C30.7893 26.1392 21.5414 30.8045 15.4219 25.7399C10.1848 21.4021 11.5256 12.7206 17.8628 10.2357C18.1121 10.1381 19.2723 9.71289 19.4156 9.71289H21.5614L21.5643 9.71576Z" fill="#C22839"/>
<path d="M23.6356 21.7367C26.4919 20.9725 27.6408 17.7953 26.1797 15.25C24.4607 12.2595 19.9542 12.5123 18.473 15.5948L18.0118 16.8358C17.4961 11.2339 24.9506 8.80649 28.0505 13.3741C30.0215 16.2785 28.7094 20.6249 25.346 21.7453C24.9707 21.8717 23.819 22.225 23.6356 21.7396V21.7367Z" fill="#C22839"/>
</g>
<defs>
<clipPath id="clip0_220_9070">
<rect width="40" height="40" fill="white"/>
</clipPath>
</defs>
</svg>
