<svg width="40" height="40" viewBox="0 0 40 40" fill="none" xmlns="http://www.w3.org/2000/svg">
<path fill-rule="evenodd" clip-rule="evenodd" d="M20 40C31.0386 40 40 31.0386 40 20C40 8.96151 31.0386 0 20 0C8.96153 0 0 8.96151 0 20C0 31.0386 8.96153 40 20 40ZM28.5872 22.4802C29.999 23.5498 30.276 25.5637 29.2065 26.9754C28.137 28.3872 26.1231 28.6653 24.7113 27.5958C23.3006 26.5262 23.0225 24.5112 24.092 23.1006C25.1615 21.6888 27.1755 21.4107 28.5872 22.4802ZM28.1637 12.7669C28.1637 12.7669 28.1498 12.7562 28.123 12.7358C27.23 12.0588 26.1038 11.7647 24.9926 11.9176C23.8824 12.0706 22.8781 12.6589 22.2011 13.5529C18.4364 18.5209 11.8364 27.2332 11.8364 27.2332C11.8364 27.2332 11.8503 27.2439 11.877 27.2642C12.7711 27.9412 13.8963 28.2353 15.0075 28.0824C16.1177 27.9294 17.122 27.3412 17.799 26.4471C21.5637 21.4792 28.1637 12.7669 28.1637 12.7669ZM15.2888 12.4043C16.6995 13.4738 16.9776 15.4877 15.9081 16.8995C14.8385 18.3112 12.8246 18.5893 11.4128 17.5198C10.0022 16.4503 9.7241 14.4353 10.7936 13.0246C11.8631 11.6129 13.877 11.3348 15.2888 12.4043Z" fill="#0E202F"/>
</svg>
