<svg width="50" height="50" viewBox="0 0 50 50" fill="none" xmlns="http://www.w3.org/2000/svg">
<path d="M34.773 5C39.7786 5 43.7036 9.29812 43.2505 14.2832L42.2378 25.4229C42.068 27.291 41.618 29.1229 40.9038 30.8574L35.7397 43.3994C35.0917 44.9728 33.5586 45.9998 31.8569 46C30.3498 46 28.9572 45.1924 28.2095 43.8838L25.6274 39.3643C25.4987 39.139 25.259 39 24.9995 39C24.74 39 24.5004 39.139 24.3716 39.3643L21.7896 43.8838C21.0418 45.1924 19.6493 46 18.1421 46C16.4405 45.9998 14.9073 44.9728 14.2593 43.3994L9.09522 30.8574C8.381 29.1229 7.93107 27.291 7.76123 25.4229L6.74854 14.2832C6.29539 9.29812 10.2204 5 15.2261 5C16.5475 5.00001 17.8508 5.30754 19.0327 5.89844L20.0122 6.38867C23.1516 7.95839 26.8474 7.95839 29.9868 6.38867L30.9663 5.89844C32.1482 5.30754 33.4515 5.00001 34.773 5ZM34.773 7C33.762 7.00001 32.7651 7.23545 31.8608 7.6875L30.8814 8.17773C27.1789 10.029 22.8202 10.029 19.1177 8.17773L18.1382 7.6875C17.234 7.23545 16.237 7.00001 15.2261 7C11.3965 7 8.39303 10.2887 8.73975 14.1025L9.75244 25.2422C9.90417 26.9107 10.3059 28.5474 10.9439 30.0967L16.1079 42.6377C16.4473 43.4619 17.2508 43.9998 18.1421 44C18.9315 44 19.6605 43.5769 20.0522 42.8916L22.6353 38.3721C23.1201 37.5236 24.0223 37 24.9995 37C25.9767 37 26.8789 37.5236 27.3638 38.3721L29.9468 42.8916C30.3385 43.5769 31.0675 44 31.8569 44C32.7482 43.9998 33.5517 43.4619 33.8911 42.6377L39.0552 30.0967C39.6931 28.5474 40.0949 26.9107 40.2466 25.2422L41.2593 14.1025C41.606 10.2887 38.6026 7 34.773 7Z" fill="black"/>
<path d="M28 13C28.4184 13 28.7923 13.2609 28.9375 13.6533L30.3008 17.3359C30.7059 18.4308 31.5692 19.2941 32.6641 19.6992L36.3467 21.0625C36.7391 21.2077 37 21.5816 37 22C37 22.4184 36.7391 22.7923 36.3467 22.9375L32.6641 24.3008C31.5692 24.7059 30.7059 25.5692 30.3008 26.6641L28.9375 30.3467C28.7923 30.7391 28.4184 31 28 31C27.5816 31 27.2077 30.7391 27.0625 30.3467L25.6992 26.6641C25.2941 25.5692 24.4308 24.7059 23.3359 24.3008L19.6533 22.9375C19.2609 22.7923 19 22.4184 19 22C19 21.5816 19.2609 21.2077 19.6533 21.0625L23.3359 19.6992C24.4308 19.2941 25.2941 18.4308 25.6992 17.3359L27.0625 13.6533L27.127 13.5127C27.3015 13.1997 27.6337 13 28 13ZM27.5752 18.0303C26.9675 19.6725 25.6725 20.9675 24.0303 21.5752L22.8809 22L24.0303 22.4248C25.6725 23.0325 26.9675 24.3275 27.5752 25.9697L28 27.1182L28.4248 25.9697C29.0325 24.3275 30.3275 23.0325 31.9697 22.4248L33.1182 22L31.9697 21.5752C30.3275 20.9675 29.0325 19.6725 28.4248 18.0303L28 16.8809L27.5752 18.0303Z" fill="black"/>
<path d="M42 5L42.5526 6.49334C43.059 7.86193 44.1381 8.94099 45.5067 9.44741L47 10L45.5067 10.5526C44.1381 11.059 43.059 12.1381 42.5526 13.5067L42 15L41.4474 13.5067C40.941 12.1381 39.8619 11.059 38.4933 10.5526L37 10L38.4933 9.44742C39.8619 8.94099 40.941 7.86193 41.4474 6.49334L42 5Z" fill="white"/>
<path d="M42 4C42.4184 4 42.7923 4.26088 42.9375 4.65332L43.4902 6.14648C43.8954 7.24128 44.7587 8.10462 45.8535 8.50977L47.3467 9.0625C47.7391 9.20771 48 9.58156 48 10C48 10.4184 47.7391 10.7923 47.3467 10.9375L45.8535 11.4902C44.7587 11.8954 43.8954 12.7587 43.4902 13.8535L42.9375 15.3467C42.7923 15.7391 42.4184 16 42 16C41.5816 16 41.2077 15.7391 41.0625 15.3467L40.5098 13.8535C40.1046 12.7587 39.2413 11.8954 38.1465 11.4902L36.6533 10.9375C36.2609 10.7923 36 10.4184 36 10C36 9.58156 36.2609 9.20771 36.6533 9.0625L38.1465 8.50977C39.2413 8.10462 40.1046 7.24128 40.5098 6.14648L41.0625 4.65332L41.127 4.5127C41.3015 4.19972 41.6337 4 42 4ZM42 7.67578C41.4568 8.6517 40.6517 9.45683 39.6758 10C40.6514 10.543 41.4568 11.3477 42 12.3232C42.543 11.3479 43.3479 10.543 44.3232 10C43.3477 9.45684 42.543 8.65145 42 7.67578Z" fill="black"/>
</svg>
