<svg width="50" height="50" viewBox="0 0 50 50" fill="none" xmlns="http://www.w3.org/2000/svg">
<path d="M33.5276 9C37.571 9.00001 40.7088 12.5283 40.2366 16.5439L39.176 25.5586C39.0454 26.6687 38.7893 27.7609 38.4133 28.8135L34.636 39.3906C34.077 40.9555 32.5946 42 30.9329 42C29.36 42 27.9384 41.0628 27.3186 39.6172L25.4739 35.3135C25.3925 35.1236 25.2059 35 24.9993 35C24.7926 35 24.6061 35.1236 24.5247 35.3135L22.6799 39.6172C22.0602 41.0628 20.6385 42 19.0657 42C17.404 42 15.9216 40.9555 15.3625 39.3906L11.5852 28.8135C11.2093 27.7609 10.9531 26.6687 10.8225 25.5586L9.76196 16.5439C9.28971 12.5283 12.4276 9.00001 16.4709 9C17.6465 9 18.8019 9.30643 19.8225 9.88965L20.7161 10.4014C23.3699 11.9179 26.6286 11.9179 29.2825 10.4014L30.176 9.88965C31.1967 9.30643 32.3521 9 33.5276 9ZM33.5276 11C32.7001 11 31.8867 11.2164 31.1682 11.627L30.2747 12.1377C27.0059 14.0056 22.9926 14.0056 19.7239 12.1377L18.8303 11.627C18.1119 11.2164 17.2984 11 16.4709 11C13.6247 11 11.4157 13.4838 11.7483 16.3105L12.8088 25.3252C12.9218 26.2855 13.1438 27.23 13.469 28.1406L17.2463 38.7178C17.5211 39.4867 18.2492 40 19.0657 40C19.8386 40 20.5375 39.5395 20.842 38.8291L22.6858 34.5254C23.0823 33.6001 23.9926 33 24.9993 33C26.006 33 26.9162 33.6001 27.3127 34.5254L29.1565 38.8291C29.461 39.5395 30.1599 40 30.9329 40C31.7494 40 32.4775 39.4867 32.7522 38.7178L36.5295 28.1406C36.8548 27.23 37.0767 26.2855 37.1897 25.3252L38.2502 16.3105C38.5828 13.4838 36.3739 11 33.5276 11Z" fill="black"/>
<path d="M2 8V4C2 2.34315 3.34315 1 5 1H9C9.55228 1 10 1.44772 10 2C10 2.55228 9.55228 3 9 3H5C4.44772 3 4 3.44772 4 4V8C4 8.55228 3.55228 9 3 9C2.44772 9 2 8.55228 2 8Z" fill="black"/>
<path d="M48 8V4C48 2.34315 46.6569 1 45 1H41C40.4477 1 40 1.44772 40 2C40 2.55228 40.4477 3 41 3H45C45.5523 3 46 3.44772 46 4V8C46 8.55228 46.4477 9 47 9C47.5523 9 48 8.55228 48 8Z" fill="black"/>
<path d="M2 41V45C2 46.6569 3.34315 48 5 48H9C9.55228 48 10 47.5523 10 47C10 46.4477 9.55228 46 9 46H5C4.44772 46 4 45.5523 4 45V41C4 40.4477 3.55228 40 3 40C2.44772 40 2 40.4477 2 41Z" fill="black"/>
<path d="M48 41V45C48 46.6569 46.6569 48 45 48H41C40.4477 48 40 47.5523 40 47C40 46.4477 40.4477 46 41 46H45C45.5523 46 46 45.5523 46 45V41C46 40.4477 46.4477 40 47 40C47.5523 40 48 40.4477 48 41Z" fill="black"/>
</svg>
