<svg width="50" height="50" viewBox="0 0 50 50" fill="none" xmlns="http://www.w3.org/2000/svg">
<path d="M34.773 4C39.7786 4 43.7036 8.29812 43.2505 13.2832L42.3667 23.0098C42.105 25.8882 40.2504 28.3766 37.5669 29.4502C36.659 29.8133 35.6892 30 34.7114 30H15.2876C14.3098 30 13.34 29.8133 12.4321 29.4502C9.74865 28.3766 7.894 25.8882 7.63233 23.0098L6.74854 13.2832C6.29539 8.29812 10.2204 4 15.2261 4C16.5475 4.00001 17.8508 4.30754 19.0327 4.89844L20.0122 5.38867C23.1516 6.95839 26.8474 6.95839 29.9868 5.38867L30.9663 4.89844C32.1482 4.30754 33.4515 4.00001 34.773 4ZM34.773 6C33.762 6.00001 32.7651 6.23545 31.8608 6.6875L30.8814 7.17773C27.1789 9.02898 22.8202 9.02898 19.1177 7.17773L18.1382 6.6875C17.234 6.23545 16.237 6.00001 15.2261 6C11.3965 6 8.39303 9.28866 8.73975 13.1025L9.62451 22.8291C9.81823 24.9585 11.19 26.7996 13.1753 27.5938C13.8469 27.8624 14.5643 28 15.2876 28H34.7114C35.4348 28 36.1521 27.8624 36.8237 27.5938C38.809 26.7996 40.1808 24.9585 40.3745 22.8291L41.2593 13.1025C41.606 9.28866 38.6026 6 34.773 6Z" fill="black"/>
<path d="M20 43V29H22V43C22 44.6569 23.3431 46 25 46C26.6569 46 28 44.6569 28 43V29H30V43C30 45.7614 27.7614 48 25 48C22.2386 48 20 45.7614 20 43Z" fill="black"/>
<path d="M31.7261 32.0381C32.257 31.8866 32.8107 32.1947 32.9624 32.7256C33.1139 33.2565 32.8058 33.8102 32.2749 33.9619L18.2749 37.9619C17.744 38.1134 17.1903 37.8053 17.0386 37.2744C16.8871 36.7435 17.1952 36.1898 17.7261 36.0381L31.7261 32.0381Z" fill="black"/>
<path d="M31.7261 38.0381C32.257 37.8866 32.8107 38.1947 32.9624 38.7256C33.1139 39.2565 32.8058 39.8102 32.2749 39.9619L18.2749 43.9619C17.744 44.1134 17.1903 43.8053 17.0386 43.2744C16.8871 42.7435 17.1952 42.1898 17.7261 42.0381L31.7261 38.0381Z" fill="black"/>
</svg>
