<svg width="60" height="43" viewBox="0 0 60 43" fill="none" xmlns="http://www.w3.org/2000/svg">
<path d="M59.4008 9.10515C59.4008 9.10515 58.8134 4.96965 57.0159 3.14862C54.7366 0.757784 52.1754 0.746035 51.0065 0.605052C42.6062 0 30.0117 0 30.0117 0H29.9883C29.9883 0 17.3938 0 8.99354 0.605052C7.82455 0.746035 5.26336 0.757784 2.98414 3.14862C1.18661 4.96965 0.599178 9.10515 0.599178 9.10515C0.599178 9.10515 0 13.9573 0 18.8154V23.3679C0 28.226 0.599178 33.0781 0.599178 33.0781C0.599178 33.0781 1.18661 37.2136 2.98414 39.0347C5.26924 41.4255 8.26513 41.3491 9.59859 41.6017C14.3979 42.0599 30 42.2068 30 42.2068C30 42.2068 42.6062 42.1892 51.0065 41.5782C52.1813 41.4372 54.7366 41.4255 57.0159 39.0347C58.8134 37.2136 59.4008 33.0781 59.4008 33.0781C59.4008 33.0781 60 28.2201 60 23.3679V18.8154C60 13.9573 59.4008 9.10515 59.4008 9.10515Z" fill="url(#paint0_linear_4048_16765)"/>
<path d="M23.8027 28.8827L40.0158 20.4824L23.8027 12.0234V28.8827Z" fill="white"/>
<defs>
<linearGradient id="paint0_linear_4048_16765" x1="30" y1="0" x2="30" y2="42.2068" gradientUnits="userSpaceOnUse">
<stop stop-color="#E52D27"/>
<stop offset="1" stop-color="#BF171D"/>
</linearGradient>
</defs>
</svg>
