<svg width="22" height="20" viewBox="0 0 22 20" fill="none" xmlns="http://www.w3.org/2000/svg">
<path d="M10.2545 0.927053C10.5539 0.00574231 11.8573 0.00573993 12.1566 0.927051L13.8997 6.29179C14.0336 6.70382 14.4176 6.98278 14.8508 6.98278H20.4916C21.4603 6.98278 21.8631 8.22239 21.0794 8.7918L16.5159 12.1074C16.1654 12.362 16.0187 12.8134 16.1526 13.2254L17.8957 18.5902C18.1951 19.5115 17.1406 20.2776 16.3569 19.7082L11.7934 16.3926C11.4429 16.138 10.9683 16.138 10.6178 16.3926L6.05426 19.7082C5.27054 20.2776 4.21606 19.5115 4.51541 18.5902L6.25853 13.2254C6.3924 12.8134 6.24574 12.362 5.89525 12.1074L1.33173 8.7918C0.548018 8.22239 0.950792 6.98278 1.91952 6.98278H7.56034C7.99357 6.98278 8.37752 6.70382 8.5114 6.2918L10.2545 0.927053Z" fill="#F3DE00"/>
</svg>
