<svg width="30" height="30" viewBox="0 0 30 30" fill="none" xmlns="http://www.w3.org/2000/svg">
<path d="M25.0133 6.4173C24.8108 6.31265 24.6137 6.19793 24.4227 6.07357C23.8673 5.70637 23.358 5.2737 22.9059 4.78488C21.7747 3.49057 21.3522 2.17751 21.1966 1.25819H21.2029C21.0729 0.495099 21.1266 0.00137329 21.1348 0.00137329H15.9825V19.9241C15.9825 20.1916 15.9825 20.456 15.9713 20.7172C15.9713 20.7497 15.9681 20.7797 15.9663 20.8147C15.9663 20.8291 15.9663 20.8441 15.9631 20.8591C15.9631 20.8628 15.9631 20.8666 15.9631 20.8703C15.9088 21.5852 15.6797 22.2757 15.2959 22.8812C14.912 23.4866 14.3853 23.9885 13.762 24.3427C13.1124 24.7122 12.3776 24.9061 11.6302 24.9051C9.22972 24.9051 7.28419 22.9477 7.28419 20.5303C7.28419 18.113 9.22972 16.1556 11.6302 16.1556C12.0846 16.1551 12.5362 16.2267 12.9683 16.3674L12.9745 11.1214C11.663 10.952 10.3305 11.0563 9.06121 11.4276C7.79193 11.7989 6.61338 12.4292 5.5999 13.2788C4.71186 14.0504 3.96528 14.9711 3.39376 15.9993C3.17627 16.3743 2.35569 17.8811 2.25632 20.3266C2.19382 21.7147 2.61068 23.1527 2.80942 23.7471V23.7596C2.93441 24.1095 3.41876 25.3039 4.2081 26.3107C4.84459 27.1183 5.59658 27.8278 6.43986 28.4162V28.4037L6.45236 28.4162C8.94661 30.1111 11.7121 29.9999 11.7121 29.9999C12.1908 29.9805 13.7945 29.9999 15.6157 29.1368C17.6356 28.18 18.7855 26.7544 18.7855 26.7544C19.5201 25.9026 20.1043 24.9319 20.5129 23.8839C20.9791 22.6584 21.1348 21.1884 21.1348 20.601V10.0315C21.1972 10.069 22.0297 10.6196 22.0297 10.6196C22.0297 10.6196 23.229 11.3883 25.1002 11.8889C26.4426 12.2451 28.2513 12.3201 28.2513 12.3201V7.20539C27.6176 7.27414 26.3307 7.07415 25.0133 6.4173Z" fill="black"/>
</svg>
