<svg width="30" height="30" viewBox="0 0 30 30" fill="none" xmlns="http://www.w3.org/2000/svg">
<path d="M14.9907 4.50068C14.9907 4.50068 5.61447 4.50069 3.26117 5.11218C2.00112 5.46425 0.963575 6.50181 0.611504 7.78039C1.33664e-05 10.1337 0 15.0072 0 15.0072C0 15.0072 1.33664e-05 19.8992 0.611504 22.2155C0.963575 23.494 1.98259 24.5131 3.26117 24.8652C5.633 25.4952 14.9907 25.4952 14.9907 25.4952C14.9907 25.4952 24.3855 25.4952 26.7388 24.8837C28.0174 24.5316 29.0364 23.5311 29.3699 22.234C29.9999 19.8992 29.9999 15.0257 29.9999 15.0257C29.9999 15.0257 30.0185 10.1337 29.3699 7.78039C29.0364 6.50181 28.0174 5.48281 26.7388 5.14926C24.3855 4.50071 14.9907 4.50068 14.9907 4.50068ZM12.0073 10.5045L19.8086 15.0072L12.0073 19.4914V10.5045Z" fill="black"/>
</svg>
