<svg width="50" height="50" viewBox="0 0 50 50" fill="none" xmlns="http://www.w3.org/2000/svg">
<path d="M33.5276 4C37.571 4.00001 40.7088 7.5283 40.2366 11.5439L39.176 20.5586C39.0454 21.6687 38.7893 22.7609 38.4133 23.8135L34.636 34.3906C34.077 35.9555 32.5946 37 30.9329 37C29.36 37 27.9384 36.0628 27.3186 34.6172L25.4739 30.3135C25.3925 30.1236 25.2059 30 24.9993 30C24.7926 30 24.6061 30.1236 24.5247 30.3135L22.6799 34.6172C22.0602 36.0628 20.6385 37 19.0657 37C17.404 37 15.9216 35.9555 15.3625 34.3906L11.5852 23.8135C11.2093 22.7609 10.9531 21.6687 10.8225 20.5586L9.76196 11.5439C9.28971 7.5283 12.4276 4.00001 16.4709 4C17.6465 4 18.8019 4.30643 19.8225 4.88965L20.7161 5.40137C23.3699 6.91787 26.6286 6.91787 29.2825 5.40137L30.176 4.88965C31.1967 4.30643 32.3521 4 33.5276 4ZM33.5276 6C32.7001 6 31.8867 6.2164 31.1682 6.62695L30.2747 7.1377C27.0059 9.00555 22.9926 9.00555 19.7239 7.1377L18.8303 6.62695C18.1119 6.2164 17.2984 6 16.4709 6C13.6247 6.00001 11.4157 8.48377 11.7483 11.3105L12.8088 20.3252C12.9218 21.2855 13.1438 22.23 13.469 23.1406L17.2463 33.7178C17.5211 34.4867 18.2492 35 19.0657 35C19.8386 35 20.5375 34.5395 20.842 33.8291L22.6858 29.5254C23.0823 28.6001 23.9926 28 24.9993 28C26.006 28 26.9162 28.6001 27.3127 29.5254L29.1565 33.8291C29.461 34.5395 30.1599 35 30.9329 35C31.7494 35 32.4775 34.4867 32.7522 33.7178L36.5295 23.1406C36.8548 22.23 37.0767 21.2855 37.1897 20.3252L38.2502 11.3105C38.5828 8.48377 36.3739 6.00001 33.5276 6Z" fill="black"/>
<path d="M47 19.7471C46.9997 18.7823 46.2177 18.0003 45.2529 18C44.4199 18 43.7024 18.5884 43.5391 19.4053L42.9805 22.1963L42.9736 22.2324L39.3799 35.1689C38.4225 38.6151 35.2847 41 31.708 41H30.8311C28.4071 41 26.2331 39.7369 25 37.7812C23.7669 39.7369 21.5929 41 19.1689 41H18.292C14.7153 41 11.5775 38.6151 10.6201 35.1689L7.02637 22.2324L7.01953 22.1963L6.46094 19.4053C6.29757 18.5884 5.58009 18 4.74707 18C3.78231 18.0003 3.00026 18.7823 3 19.7471V47H47V19.7471ZM49 47.4463C49 48.3043 48.3043 49 47.4463 49H2.55371C1.74938 49 1.08745 48.3888 1.00781 47.6055L1 47.4463V19.7471C1.00026 17.6777 2.67774 16.0003 4.74707 16C6.53346 16 8.07154 17.261 8.42188 19.0127L8.97168 21.7617L12.5469 34.6338C13.2638 37.2142 15.6138 39 18.292 39H19.1689C21.5013 39 23.5094 37.3535 23.9668 35.0664C24.1857 33.9726 25.7075 33.9384 26.0078 34.9639L26.0332 35.0664L26.0801 35.2793C26.616 37.4551 28.5716 39 30.8311 39H31.708C34.3862 39 36.7362 37.2142 37.4531 34.6338L41.0273 21.7617L41.5781 19.0127C41.9285 17.261 43.4665 16 45.2529 16C47.3223 16.0003 48.9997 17.6777 49 19.7471V47.4463Z" fill="black"/>
<path d="M8 43.5C8 44.3284 7.32843 45 6.5 45C5.67157 45 5 44.3284 5 43.5C5 42.6716 5.67157 42 6.5 42C7.32843 42 8 42.6716 8 43.5Z" fill="black"/>
<path d="M42 43.5C42 44.3284 42.6716 45 43.5 45C44.3284 45 45 44.3284 45 43.5C45 42.6716 44.3284 42 43.5 42C42.6716 42 42 42.6716 42 43.5Z" fill="black"/>
<path d="M8 38.5C8 39.3284 7.32843 40 6.5 40C5.67157 40 5 39.3284 5 38.5C5 37.6716 5.67157 37 6.5 37C7.32843 37 8 37.6716 8 38.5Z" fill="black"/>
<path d="M42 38.5C42 39.3284 42.6716 40 43.5 40C44.3284 40 45 39.3284 45 38.5C45 37.6716 44.3284 37 43.5 37C42.6716 37 42 37.6716 42 38.5Z" fill="black"/>
<path d="M8 33.5C8 34.3284 7.32843 35 6.5 35C5.67157 35 5 34.3284 5 33.5C5 32.6716 5.67157 32 6.5 32C7.32843 32 8 32.6716 8 33.5Z" fill="black"/>
<path d="M42 33.5C42 34.3284 42.6716 35 43.5 35C44.3284 35 45 34.3284 45 33.5C45 32.6716 44.3284 32 43.5 32C42.6716 32 42 32.6716 42 33.5Z" fill="black"/>
<path d="M13 43.5C13 44.3284 12.3284 45 11.5 45C10.6716 45 10 44.3284 10 43.5C10 42.6716 10.6716 42 11.5 42C12.3284 42 13 42.6716 13 43.5Z" fill="black"/>
<path d="M37 43.5C37 44.3284 37.6716 45 38.5 45C39.3284 45 40 44.3284 40 43.5C40 42.6716 39.3284 42 38.5 42C37.6716 42 37 42.6716 37 43.5Z" fill="black"/>
<path d="M27 43.5C27 44.3284 26.3284 45 25.5 45C24.6716 45 24 44.3284 24 43.5C24 42.6716 24.6716 42 25.5 42C26.3284 42 27 42.6716 27 43.5Z" fill="black"/>
</svg>
