<svg width="50" height="50" viewBox="0 0 50 50" fill="none" xmlns="http://www.w3.org/2000/svg">
<path d="M43 2L43.5526 3.49334C44.059 4.86193 45.1381 5.94099 46.5067 6.44741L48 7L46.5067 7.55259C45.1381 8.05901 44.059 9.13807 43.5526 10.5067L43 12L42.4474 10.5067C41.941 9.13807 40.8619 8.05901 39.4933 7.55259L38 7L39.4933 6.44742C40.8619 5.94099 41.941 4.86193 42.4474 3.49334L43 2Z" fill="white"/>
<path d="M43 1C43.4184 1 43.7923 1.26088 43.9375 1.65332L44.4902 3.14648C44.8954 4.24128 45.7587 5.10462 46.8535 5.50977L48.3467 6.0625C48.7391 6.20771 49 6.58156 49 7C49 7.41844 48.7391 7.79229 48.3467 7.9375L46.8535 8.49023C45.7587 8.89538 44.8954 9.75872 44.4902 10.8535L43.9375 12.3467C43.7923 12.7391 43.4184 13 43 13C42.5816 13 42.2077 12.7391 42.0625 12.3467L41.5098 10.8535C41.1046 9.75872 40.2413 8.89538 39.1465 8.49023L37.6533 7.9375C37.2609 7.79229 37 7.41844 37 7C37 6.58156 37.2609 6.20771 37.6533 6.0625L39.1465 5.50977C40.2413 5.10462 41.1046 4.24128 41.5098 3.14648L42.0625 1.65332L42.127 1.5127C42.3015 1.19972 42.6337 1 43 1ZM43 4.67578C42.4568 5.6517 41.6517 6.45683 40.6758 7C41.6514 7.54303 42.4568 8.34766 43 9.32324C43.543 8.34791 44.3479 7.54303 45.3232 7C44.3477 6.45684 43.543 5.65145 43 4.67578Z" fill="black"/>
<path d="M7 38L7.55259 39.4933C8.05901 40.8619 9.13807 41.941 10.5067 42.4474L12 43L10.5067 43.5526C9.13807 44.059 8.05901 45.1381 7.55259 46.5067L7 48L6.44741 46.5067C5.94099 45.1381 4.86193 44.059 3.49334 43.5526L2 43L3.49334 42.4474C4.86193 41.941 5.94099 40.8619 6.44741 39.4933L7 38Z" fill="white"/>
<path d="M7 37C7.41844 37 7.79229 37.2609 7.9375 37.6533L8.49023 39.1465C8.89538 40.2413 9.75872 41.1046 10.8535 41.5098L12.3467 42.0625C12.7391 42.2077 13 42.5816 13 43C13 43.4184 12.7391 43.7923 12.3467 43.9375L10.8535 44.4902C9.75871 44.8954 8.89538 45.7587 8.49023 46.8535L7.9375 48.3467C7.79229 48.7391 7.41844 49 7 49C6.58156 49 6.20771 48.7391 6.0625 48.3467L5.50977 46.8535C5.10462 45.7587 4.24128 44.8954 3.14648 44.4902L1.65332 43.9375C1.26088 43.7923 1 43.4184 1 43C1 42.5816 1.26088 42.2077 1.65332 42.0625L3.14648 41.5098C4.24128 41.1046 5.10462 40.2413 5.50977 39.1465L6.0625 37.6533L6.12695 37.5127C6.30153 37.1997 6.63372 37 7 37ZM7 40.6758C6.45683 41.6517 5.6517 42.4568 4.67578 43C5.65145 43.543 6.45684 44.3477 7 45.3232C7.54303 44.3479 8.34791 43.543 9.32324 43C8.34766 42.4568 7.54303 41.6514 7 40.6758Z" fill="black"/>
<path d="M26.5569 6.43845C27.7418 4.62689 30.5593 5.72694 30.2034 7.86228L28.181 20H35.1517C36.741 20 37.6952 21.7645 36.8255 23.0947L23.4437 43.5615C22.2588 45.3731 19.4413 44.273 19.7972 42.1377L21.8196 30H14.8489C13.2596 30 12.3053 28.2355 13.1751 26.9053L26.5569 6.43845ZM14.8489 28H21.8196C23.0555 28 23.9955 29.11 23.7923 30.3291L21.7698 42.4668L35.1517 22H28.181C26.9451 22 26.0051 20.8899 26.2083 19.6709L28.2308 7.53318L14.8489 28Z" fill="black"/>
</svg>
