<svg width="40" height="40" viewBox="0 0 40 40" fill="none" xmlns="http://www.w3.org/2000/svg">
<g clip-path="url(#clip0_220_8588)">
<path d="M33.0128 22.6953C36.0661 20.0686 35.8061 11.1553 32.4528 13.5286C27.7728 16.8353 23.0061 20.4086 19.9195 22.2619C15.1861 25.0953 9.63279 27.5353 5.58612 28.9219C4.44612 29.3153 4.21946 29.3286 4.23946 29.5353C4.23946 29.7419 4.59946 29.7619 5.58612 29.7086C12.3661 29.3019 20.3861 28.1086 27.2928 25.7086C30.4261 24.6219 31.4461 24.0419 33.0128 22.6953Z" fill="#00AE9E"/>
<path d="M34.6409 34.095C39.7875 31.8683 42.0075 23.2617 37.6475 24.9017C31.5542 27.2017 23.3209 29.1683 19.4342 29.895C12.8942 31.1083 5.94755 31.255 1.32088 31.0683C0.674212 31.0417 0.120879 30.935 0.0342123 31.1817C-0.039121 31.395 0.407546 31.595 1.12755 31.935C6.66755 34.535 16.0409 36.195 26.1142 35.695C30.7209 35.4683 32.8942 34.8417 34.6409 34.0883V34.095Z" fill="#007161"/>
<path d="M27.0005 13.1009C29.1138 8.76753 25.2872 2.18086 23.8938 4.78753C21.7738 8.74086 17.7538 14.1942 16.2272 16.2809C13.8072 19.5542 11.0938 22.7675 8.72717 25.1209C8.1205 25.7209 7.72717 26.0409 7.83384 26.1875C7.94717 26.3409 8.25384 26.2009 8.88717 25.9142C13.8338 23.6675 19.1538 20.6675 23.2738 17.3475C25.7138 15.3742 26.2605 14.6342 27.0072 13.1009H27.0005Z" fill="#7AC143"/>
</g>
<defs>
<clipPath id="clip0_220_8588">
<rect width="40" height="31.6467" fill="white" transform="translate(0 4.17578)"/>
</clipPath>
</defs>
</svg>
