<svg width="40" height="40" viewBox="0 0 40 40" fill="none" xmlns="http://www.w3.org/2000/svg">
<g clip-path="url(#clip0_220_8903)">
<path d="M19.6826 40.0057C13.9069 39.8547 8.63833 37.4457 4.86445 33.0905C-1.24685 26.0376 -1.6444 15.6025 3.92088 8.09788C8.61664 1.76602 16.5885 -1.23698 24.3523 0.474724C33.2428 2.43492 39.7364 10.3005 39.9995 19.4152V20.6264C39.9587 20.7489 39.9862 20.898 39.9808 21.0277C39.5537 31.1301 31.1343 39.5765 21.0215 39.9869C20.8916 39.9922 20.7427 39.9648 20.6203 40.0057C20.3083 39.9996 19.9943 40.0139 19.6826 40.0057ZM31.3187 5.64989C23.5826 -0.447549 12.4413 0.700751 6.07565 8.16235C0.292352 14.9414 0.273403 24.9864 6.02779 31.7904C10.3686 36.923 17.1408 39.2708 23.7692 37.8898C30.9606 36.3916 36.6187 30.6073 37.9618 23.3846C39.2101 16.6714 36.6458 9.84886 31.3187 5.65008V5.64989Z" fill="#B2A069"/>
<path d="M29.3065 9.53961C31.0155 11.2314 31.2477 14.0502 30.8285 16.311C29.9041 21.2971 25.5295 23.3051 20.8658 23.5591C19.4838 23.6343 18.1019 23.5194 16.7229 23.4608C16.6986 23.4599 16.6768 23.4505 16.6553 23.4409L15.1055 32.2161C15.0479 32.6461 14.8686 32.9776 14.3993 33.0141C13.2432 33.1042 11.9716 32.9446 10.8034 33.0141C10.4277 32.9729 10.2978 32.7908 10.3279 32.42C11.1789 27.6516 12.0162 22.8802 12.8456 18.1079L20.4065 18.2144C20.4391 18.2372 20.4262 18.3636 20.4227 18.408C20.3762 18.971 20.1945 19.6168 20.1154 20.1908C20.0711 20.5127 20.0056 20.8071 20.3293 21.007C20.8029 21.2994 21.2942 20.8708 21.6656 20.6077C23.2997 19.1644 25.0968 17.85 26.7161 16.3985C27.1224 16.0342 27.7173 15.5155 27.3402 14.9381C27.0499 14.4932 26.575 13.9439 26.2269 13.527C25.221 12.323 24.1376 11.1855 23.1219 9.9899C22.6443 9.49194 21.8957 9.81916 21.7244 10.4298C21.5636 11.0032 21.5804 11.7125 21.4286 12.283C21.4057 12.3686 21.3827 12.4307 21.2864 12.4533C21.1008 12.4971 20.5958 12.4649 20.3758 12.4625C19.1869 12.4498 17.9913 12.4168 16.8024 12.4023C15.8287 12.3904 14.8545 12.391 13.8808 12.3838L13.8834 12.2396C14.1237 11.1501 14.2167 9.98346 14.4732 8.90275C14.7041 7.92969 15.4648 7.92773 16.3155 7.81482C17.5381 7.65267 18.7739 7.57394 20.006 7.52003C23.028 7.38797 26.9898 7.24614 29.3065 9.53942V9.53961Z" fill="#79ACD1"/>
</g>
<defs>
<clipPath id="clip0_220_8903">
<rect width="40" height="40.0082" fill="white"/>
</clipPath>
</defs>
</svg>
