<svg width="29" height="29" viewBox="0 0 29 29" fill="none" xmlns="http://www.w3.org/2000/svg">
<path d="M5.81065 18.9266C1.39645 14.5124 1.39645 7.35561 5.81065 2.94142C6.3992 2.35286 7.35345 2.35286 7.94201 2.94142L12.2047 7.20414C13.0876 8.08698 13.0876 9.51835 12.2047 10.4012L10.8947 11.7112C10.1133 12.4927 10.0113 13.7245 10.6536 14.6237L10.8908 14.9557C11.7607 16.1737 12.8263 17.2393 14.0443 18.1092L14.3763 18.3464C15.2755 18.9887 16.5073 18.8867 17.2888 18.1053L18.5988 16.7953C19.4817 15.9124 20.913 15.9124 21.7959 16.7953L26.0586 21.058C26.6471 21.6466 26.6471 22.6008 26.0586 23.1894C21.6444 27.6035 14.4876 27.6035 10.0734 23.1894L5.81065 18.9266Z" fill="#02886B"/>
</svg>
