<svg width="40" height="40" viewBox="0 0 40 40" fill="none" xmlns="http://www.w3.org/2000/svg">
<path d="M27.2929 14.293C27.6834 13.9025 28.3164 13.9025 28.707 14.293C29.0975 14.6835 29.0975 15.3166 28.707 15.7071L18.707 25.7071C18.3164 26.0976 17.6834 26.0976 17.2929 25.7071L11.2929 19.7071C10.9024 19.3166 10.9024 18.6835 11.2929 18.293C11.659 17.9269 12.238 17.9043 12.6308 18.2247L12.707 18.293L17.9999 23.586L27.2929 14.293Z" fill="black"/>
<path d="M36 20C36 11.1634 28.8366 4 20 4C11.1634 4 4 11.1634 4 20C4 28.8366 11.1634 36 20 36V38C10.0589 38 2 29.9411 2 20C2 10.0589 10.0589 2 20 2C29.9411 2 38 10.0589 38 20C38 29.9411 29.9411 38 20 38V36C28.8366 36 36 28.8366 36 20Z" fill="black"/>
</svg>
