<svg width="30" height="30" viewBox="0 0 30 30" fill="none" xmlns="http://www.w3.org/2000/svg">
<path d="M21.0623 0H8.93768C6.56781 0.00180589 4.29553 0.944032 2.61978 2.61978C0.944032 4.29553 0.00180589 6.56781 0 8.93768V21.0623C0.00144472 23.4324 0.943511 25.7051 2.6193 27.3811C4.29509 29.0571 6.56758 29.9996 8.93768 30.0014H21.0623C23.4323 29.9992 25.7046 29.0567 27.3803 27.3807C29.056 25.7047 29.9982 23.4323 30 21.0623V8.93768C29.9989 6.56759 29.0569 4.29489 27.381 2.61898C25.7051 0.943078 23.4324 0.00108413 21.0623 0ZM26.9835 21.0623C26.9831 22.6326 26.3592 24.1385 25.2488 25.2488C24.1385 26.3592 22.6326 26.9831 21.0623 26.9835H8.93768C8.16016 26.9835 7.39026 26.8303 6.67195 26.5327C5.95363 26.2352 5.30098 25.799 4.75126 25.2491C4.20153 24.6993 3.76551 24.0465 3.46809 23.3282C3.17067 22.6098 3.01769 21.8398 3.01786 21.0623V8.93768C3.01769 8.16023 3.17068 7.39036 3.46812 6.67205C3.76555 5.95374 4.2016 5.30108 4.75134 4.75134C5.30108 4.2016 5.95375 3.76555 6.67205 3.46812C7.39036 3.17068 8.16023 3.01768 8.93768 3.01786H21.0623C22.6322 3.01823 24.1378 3.64203 25.2479 4.75214C26.358 5.86224 26.9818 7.36776 26.9821 8.93768L26.9835 21.0623Z" fill="black"/>
<path d="M15.0028 7.24407C10.7235 7.24407 7.24609 10.7229 7.24609 15.0008C7.24609 19.2787 10.7249 22.7575 15.0028 22.7575C19.2807 22.7575 22.7595 19.2787 22.7595 15.0008C22.7595 10.7229 19.2821 7.24407 15.0028 7.24407ZM15.0028 19.7396C13.746 19.7398 12.5406 19.2407 11.6517 18.3521C10.7629 17.4636 10.2635 16.2583 10.2633 15.0015C10.2631 13.7446 10.7622 12.5392 11.6508 11.6504C12.5394 10.7616 13.7446 10.2621 15.0014 10.2619C16.2583 10.2618 17.4637 10.7609 18.3525 11.6494C19.2414 12.538 19.7408 13.7433 19.741 15.0001C19.7412 16.2569 19.2421 17.4623 18.3535 18.3512C17.4649 19.24 16.2596 19.7395 15.0028 19.7396ZM22.7759 5.44263C23.1434 5.4429 23.5026 5.5521 23.808 5.75645C24.1135 5.96079 24.3515 6.25109 24.492 6.59067C24.6325 6.93026 24.6692 7.30387 24.5975 7.6643C24.5257 8.02473 24.3487 8.3558 24.0888 8.61566C23.829 8.87553 23.4979 9.05252 23.1375 9.12429C22.777 9.19605 22.4034 9.15935 22.0639 9.01884C21.7243 8.87833 21.434 8.6403 21.2296 8.33485C21.0253 8.02939 20.9161 7.67021 20.9158 7.30271C20.9158 6.27721 21.6113 5.44263 22.7759 5.44263Z" fill="black"/>
</svg>
