<svg xmlns="http://www.w3.org/2000/svg" viewBox="0 0 608 409">
  <path d="M296.262 -184.549C300.263 -189.436 307.737 -189.436 311.738 -184.549L360.82 -124.599C363.54 -121.277 368.076 -120.062 372.091 -121.579L444.574 -148.956C450.482 -151.188 456.954 -147.451 457.976 -141.218L470.507 -64.7582C471.202 -60.522 474.522 -57.2016 478.758 -56.5073L555.218 -43.9755C561.451 -42.954 565.188 -36.4821 562.956 -30.5737L535.579 41.9086C534.062 45.9244 535.277 50.4602 538.599 53.1796L598.549 102.262C603.436 106.263 603.436 113.737 598.549 117.738L538.599 166.82C535.277 169.54 534.062 174.076 535.579 178.091L562.956 250.574C565.188 256.482 561.451 262.954 555.218 263.976L478.758 276.507C474.522 277.202 471.202 280.522 470.507 284.758L457.976 361.218C456.954 367.451 450.482 371.188 444.574 368.956L372.091 341.579C368.076 340.062 363.54 341.277 360.82 344.599L311.738 404.549C307.737 409.436 300.263 409.436 296.262 404.549L247.18 344.599C244.46 341.277 239.924 340.062 235.909 341.579L163.426 368.956C157.518 371.188 151.046 367.451 150.024 361.218L137.493 284.758C136.798 280.522 133.478 277.202 129.242 276.507L52.7816 263.976C46.549 262.954 42.8124 256.482 45.0441 250.574L72.4214 178.091C73.9382 174.076 72.7228 169.54 69.4013 166.82L9.45072 117.738C4.5639 113.737 4.5639 106.263 9.45073 102.262L69.4013 53.1796C72.7228 50.4602 73.9382 45.9244 72.4214 41.9086L45.0441 -30.5738C42.8124 -36.4821 46.549 -42.954 52.7816 -43.9755L129.242 -56.5073C133.478 -57.2016 136.798 -60.522 137.493 -64.7582L150.024 -141.218C151.046 -147.451 157.518 -151.188 163.426 -148.956L235.909 -121.579C239.924 -120.062 244.46 -121.277 247.18 -124.599L296.262 -184.549Z" fill="black"/>
</svg>
