<svg width="136" height="136" viewBox="0 0 136 136" fill="none" xmlns="http://www.w3.org/2000/svg">
<ellipse cx="68.0039" cy="68.0005" rx="57.5" ry="57.4975" fill="white" stroke="#27AAE1" stroke-width="21"/>
<path d="M50.4924 66.0955C50.4924 65.2639 50.379 64.4953 50.1522 63.7897C49.9506 63.0589 49.6608 62.4289 49.2828 61.8997C48.9048 61.3705 48.4512 60.9547 47.922 60.6523C47.418 60.3499 46.8636 60.1987 46.2588 60.1987C45.8304 60.1987 45.3264 60.2491 44.7468 60.3499C44.1924 60.4507 43.701 60.5011 43.2726 60.5011C42.4662 60.5011 42.063 60.2491 42.063 59.7451C42.063 59.3167 42.315 59.0143 42.819 58.8379C43.323 58.6363 43.9404 58.4599 44.6712 58.3087C45.4272 58.1575 46.2336 57.9685 47.0904 57.7417C47.9724 57.5149 48.7788 57.1495 49.5096 56.6455C50.2656 56.1415 50.8956 55.4485 51.3996 54.5665C51.9036 53.6845 52.1556 52.5001 52.1556 51.0133C52.1556 49.5769 51.8784 48.5185 51.324 47.8381C50.7948 47.1577 49.938 46.8175 48.7536 46.8175C47.418 46.8175 46.3344 47.1829 45.5028 47.9137C44.6712 48.6445 44.2554 49.5769 44.2554 50.7109C44.2554 51.4921 44.457 52.0969 44.8602 52.5253C45.2886 52.9537 45.8682 53.1679 46.599 53.1679C46.3974 53.5963 46.0572 53.9491 45.5784 54.2263C45.1248 54.4783 44.6082 54.6043 44.0286 54.6043C43.071 54.6043 42.2898 54.2893 41.685 53.6593C41.1054 53.0041 40.8156 52.1473 40.8156 51.0889C40.8156 50.2069 41.0172 49.3879 41.4204 48.6319C41.8488 47.8759 42.4284 47.2207 43.1592 46.6663C43.89 46.1119 44.7594 45.6835 45.7674 45.3811C46.7754 45.0535 47.8716 44.8897 49.056 44.8897C51.2736 44.8897 53.0376 45.4189 54.348 46.4773C55.6584 47.5105 56.3136 48.9217 56.3136 50.7109C56.3136 51.5929 56.1372 52.4623 55.7844 53.3191C55.4316 54.1507 54.9402 54.9319 54.3102 55.6627C53.7054 56.3683 52.9872 56.9857 52.1556 57.5149C51.324 58.0189 50.4294 58.3843 49.4718 58.6111V58.8379C51.2106 59.2915 52.5588 60.1105 53.5164 61.2949C54.474 62.4541 54.9528 63.8527 54.9528 65.4907C54.9528 66.7759 54.6504 67.9855 54.0456 69.1195C53.466 70.2283 52.6596 71.1985 51.6264 72.0301C50.6184 72.8617 49.4214 73.5295 48.0354 74.0335C46.6746 74.5123 45.2256 74.7517 43.6884 74.7517C42.5292 74.7517 41.4708 74.6131 40.5132 74.3359C39.5556 74.0335 38.724 73.6303 38.0184 73.1263C37.338 72.6223 36.8088 72.0175 36.4308 71.3119C36.0528 70.5811 35.8638 69.7747 35.8638 68.8927C35.8638 68.1871 35.9898 67.5193 36.2418 66.8893C36.4938 66.2341 36.8214 65.6671 37.2246 65.1883C37.653 64.7095 38.1444 64.3315 38.6988 64.0543C39.2784 63.7771 39.8832 63.6385 40.5132 63.6385C41.1684 63.6385 41.7354 63.7897 42.2142 64.0921C42.693 64.3945 42.9828 64.7977 43.0836 65.3017C42.63 65.3017 42.189 65.4151 41.7606 65.6419C41.3574 65.8435 40.992 66.1333 40.6644 66.5113C40.362 66.8641 40.11 67.2799 39.9084 67.7587C39.732 68.2375 39.6438 68.7541 39.6438 69.3085C39.6438 70.4173 40.0218 71.2741 40.7778 71.8789C41.5338 72.4837 42.6048 72.7861 43.9908 72.7861C44.9736 72.7861 45.8556 72.6349 46.6368 72.3325C47.4432 72.0049 48.1236 71.5513 48.678 70.9717C49.2576 70.3669 49.6986 69.6613 50.001 68.8549C50.3286 68.0233 50.4924 67.1035 50.4924 66.0955ZM68.1143 74.7517C67.0307 74.7517 66.0479 74.5123 65.1659 74.0335C64.2839 73.5295 63.5279 72.8365 62.8979 71.9545C62.2679 71.0725 61.7765 70.0141 61.4237 68.7793C61.0709 67.5193 60.8945 66.1333 60.8945 64.6213C60.8945 62.2021 61.2977 59.8207 62.1041 57.4771C62.9105 55.1083 63.9689 52.9915 65.2793 51.1267C66.6149 49.2619 68.1017 47.7625 69.7397 46.6285C71.4029 45.4693 73.0913 44.8897 74.8049 44.8897C75.8885 44.8897 76.8713 45.1291 77.7533 45.6079C78.6605 46.0615 79.4291 46.7167 80.0591 47.5735C80.6891 48.4051 81.1805 49.4131 81.5333 50.5975C81.8861 51.7819 82.0625 53.0923 82.0625 54.5287C82.0625 56.1163 81.8735 57.7291 81.4955 59.3671C81.1175 60.9799 80.5883 62.5423 79.9079 64.0543C79.2527 65.5411 78.4715 66.9397 77.5643 68.2501C76.6571 69.5353 75.6869 70.6693 74.6537 71.6521C73.6205 72.6097 72.5495 73.3657 71.4407 73.9201C70.3319 74.4745 69.2231 74.7517 68.1143 74.7517ZM74.4269 46.8553C73.6961 46.8553 72.9527 47.1451 72.1967 47.7247C71.4659 48.3043 70.7477 49.0981 70.0421 50.1061C69.3617 51.0889 68.7191 52.2607 68.1143 53.6215C67.5095 54.9571 66.9803 56.3935 66.5267 57.9307C66.0983 59.4679 65.7455 61.0681 65.4683 62.7313C65.2163 64.3693 65.0903 65.9947 65.0903 67.6075C65.0903 69.2455 65.3927 70.5181 65.9975 71.4253C66.6023 72.3073 67.4717 72.7483 68.6057 72.7483C69.3365 72.7483 70.0673 72.4585 70.7981 71.8789C71.5289 71.2993 72.2345 70.5055 72.9149 69.4975C73.5953 68.4895 74.2379 67.3177 74.8427 65.9821C75.4475 64.6213 75.9641 63.1597 76.3925 61.5973C76.8461 60.0349 77.1989 58.4221 77.4509 56.7589C77.7029 55.0705 77.8289 53.4073 77.8289 51.7693C77.8289 50.1817 77.5391 48.9721 76.9595 48.1405C76.3799 47.2837 75.5357 46.8553 74.4269 46.8553ZM93.034 70.4425V62.5423H85.1716V60.6523H93.034V52.7521H94.9996V60.6523H102.862V62.5423H94.9996V70.4425H93.034Z" fill="black"/>
<path d="M44.8447 85.6494C44.6047 84.4194 44.3572 83.5719 44.1022 83.1069C43.8622 82.6269 43.6072 82.3869 43.3372 82.3869C43.0522 82.3869 42.7897 82.6044 42.5497 83.0394C42.3247 83.4594 42.0922 84.1344 41.8522 85.0644L41.0197 84.8394C41.1697 84.1494 41.3647 83.5119 41.6047 82.9269C41.8597 82.3419 42.1297 81.8394 42.4147 81.4194C42.7147 80.9844 43.0297 80.6544 43.3597 80.4294C43.6897 80.1894 44.0197 80.0694 44.3497 80.0694C44.6347 80.0694 44.8747 80.1744 45.0697 80.3844C45.2797 80.5944 45.4897 80.9844 45.6997 81.5544C45.8797 82.0344 46.0747 82.6719 46.2847 83.4669C46.5097 84.2469 46.7272 85.1469 46.9372 86.1669L47.7022 89.7894H47.7922C48.0772 89.4294 48.3622 89.0244 48.6472 88.5744C48.9472 88.1094 49.2172 87.6294 49.4572 87.1344C49.6972 86.6244 49.8922 86.1144 50.0422 85.6044C50.1922 85.0794 50.2672 84.5919 50.2672 84.1419C50.2672 83.9919 50.2597 83.8044 50.2447 83.5794C50.2297 83.3394 50.2072 83.0994 50.1772 82.8594C50.1622 82.6194 50.1472 82.3944 50.1322 82.1844C50.1172 81.9594 50.1097 81.7794 50.1097 81.6444C50.1097 81.1044 50.2447 80.7069 50.5147 80.4519C50.7847 80.1969 51.0697 80.0694 51.3697 80.0694C51.7597 80.0694 52.0447 80.2344 52.2247 80.5644C52.4047 80.8944 52.4947 81.2769 52.4947 81.7119C52.4947 82.3269 52.3297 83.1144 51.9997 84.0744C51.6697 85.0344 51.2347 86.0694 50.6947 87.1794C50.1547 88.2744 49.5322 89.3994 48.8272 90.5544C48.1222 91.6944 47.3947 92.7444 46.6447 93.7044C45.5047 95.1894 44.4472 96.2844 43.4722 96.9894C42.5122 97.7094 41.6122 98.0694 40.7722 98.0694C40.1422 98.0694 39.6472 97.8969 39.2872 97.5519C38.9122 97.2069 38.7247 96.7869 38.7247 96.2919C38.7247 95.9169 38.8297 95.6094 39.0397 95.3694C39.2497 95.1444 39.5272 95.0319 39.8722 95.0319C40.1722 95.0319 40.3972 95.1144 40.5472 95.2794C40.6822 95.4594 40.7947 95.6544 40.8847 95.8644C40.9747 96.0894 41.0722 96.2844 41.1772 96.4494C41.2672 96.6294 41.4172 96.7194 41.6272 96.7194C41.9122 96.7194 42.2722 96.5619 42.7072 96.2469C43.1422 95.9319 43.5772 95.5344 44.0122 95.0544C44.4472 94.5894 44.8522 94.0794 45.2272 93.5244C45.6172 92.9694 45.8947 92.4519 46.0597 91.9719L44.8447 85.6494ZM61.1493 89.2269C59.8443 91.3719 58.2393 92.4444 56.3343 92.4444C55.2993 92.4444 54.5043 92.1294 53.9493 91.4994C53.3943 90.8544 53.1168 89.9469 53.1168 88.7769C53.1168 87.7419 53.3268 86.7069 53.7468 85.6719C54.1818 84.6369 54.7443 83.7069 55.4343 82.8819C56.1243 82.0419 56.8968 81.3669 57.7518 80.8569C58.6068 80.3319 59.4618 80.0694 60.3168 80.0694C61.0368 80.0694 61.6218 80.2569 62.0718 80.6319C62.5368 80.9919 62.7693 81.4569 62.7693 82.0269C62.7693 82.5519 62.5743 83.0919 62.1843 83.6469C61.7943 84.2019 61.2618 84.7269 60.5868 85.2219C59.9268 85.7169 59.1468 86.1669 58.2468 86.5719C57.3618 86.9769 56.4168 87.2919 55.4118 87.5169C55.3818 87.7269 55.3593 87.9369 55.3443 88.1469C55.3293 88.3419 55.3218 88.5444 55.3218 88.7544C55.3218 90.3894 55.8993 91.2069 57.0543 91.2069C57.6093 91.2069 58.1793 90.9894 58.7643 90.5544C59.3643 90.1194 59.9193 89.5194 60.4293 88.7544L61.1493 89.2269ZM59.8668 81.1269C59.4768 81.1269 59.0718 81.2769 58.6518 81.5769C58.2318 81.8769 57.8268 82.2819 57.4368 82.7919C57.0618 83.2869 56.7168 83.8569 56.4018 84.5019C56.0868 85.1469 55.8318 85.8144 55.6368 86.5044C56.3568 86.3094 57.0243 86.0544 57.6393 85.7394C58.2543 85.4244 58.7793 85.0719 59.2143 84.6819C59.6643 84.2769 60.0168 83.8569 60.2718 83.4219C60.5268 82.9719 60.6543 82.5219 60.6543 82.0719C60.6543 81.4419 60.3918 81.1269 59.8668 81.1269ZM70.533 81.2394C69.963 81.2394 69.3705 81.5019 68.7555 82.0269C68.1555 82.5519 67.608 83.2119 67.113 84.0069C66.618 84.7869 66.213 85.6344 65.898 86.5494C65.583 87.4494 65.4255 88.2894 65.4255 89.0694C65.4255 89.6094 65.538 90.0444 65.763 90.3744C65.988 90.6894 66.2955 90.8469 66.6855 90.8469C67.0305 90.8469 67.3905 90.7119 67.7655 90.4419C68.1405 90.1569 68.5005 89.7894 68.8455 89.3394C69.2055 88.8744 69.543 88.3494 69.858 87.7644C70.173 87.1794 70.4505 86.5794 70.6905 85.9644C70.9305 85.3344 71.118 84.7194 71.253 84.1194C71.388 83.5194 71.4555 82.9794 71.4555 82.4994C71.4555 82.1094 71.373 81.8019 71.208 81.5769C71.043 81.3519 70.818 81.2394 70.533 81.2394ZM72.8505 80.2944H74.718L73.4355 83.7369C73.2255 84.3069 73.0155 84.9144 72.8055 85.5594C72.6105 86.2044 72.4305 86.8269 72.2655 87.4269C72.1155 88.0269 71.9955 88.5744 71.9055 89.0694C71.8155 89.5644 71.7705 89.9319 71.7705 90.1719C71.7705 90.6069 71.913 90.8244 72.198 90.8244C72.408 90.8244 72.708 90.6069 73.098 90.1719C73.503 89.7369 73.953 89.1744 74.448 88.4844L75.033 88.9569C74.403 90.0669 73.7205 90.9294 72.9855 91.5444C72.2655 92.1444 71.568 92.4444 70.893 92.4444C70.548 92.4444 70.278 92.3169 70.083 92.0619C69.903 91.7919 69.813 91.3569 69.813 90.7569C69.813 90.6219 69.813 90.4644 69.813 90.2844C69.828 90.1044 69.8505 89.8644 69.8805 89.5644L69.7905 89.5419C69.5655 89.9619 69.2955 90.3519 68.9805 90.7119C68.6805 91.0569 68.3505 91.3644 67.9905 91.6344C67.6305 91.8894 67.2555 92.0844 66.8655 92.2194C66.4755 92.3694 66.093 92.4444 65.718 92.4444C64.953 92.4444 64.353 92.1594 63.918 91.5894C63.498 91.0044 63.288 90.2019 63.288 89.1819C63.288 88.1469 63.5055 87.0894 63.9405 86.0094C64.3755 84.9294 64.938 83.9544 65.628 83.0844C66.318 82.1994 67.083 81.4794 67.923 80.9244C68.763 80.3544 69.588 80.0694 70.398 80.0694C70.893 80.0694 71.298 80.1894 71.613 80.4294C71.928 80.6544 72.183 81.0294 72.378 81.5544L72.8505 80.2944ZM76.3675 83.4219C76.5325 83.0469 76.78 82.6644 77.11 82.2744C77.455 81.8694 77.8225 81.5094 78.2125 81.1944C78.6175 80.8644 79.0225 80.5944 79.4275 80.3844C79.8325 80.1744 80.185 80.0694 80.485 80.0694C80.845 80.0694 81.1075 80.2044 81.2725 80.4744C81.4375 80.7444 81.52 81.1794 81.52 81.7794C81.52 82.0194 81.505 82.2519 81.475 82.4769C81.46 82.7019 81.4225 82.9644 81.3625 83.2644L81.43 83.3319C81.61 82.8969 81.865 82.4694 82.195 82.0494C82.525 81.6294 82.8775 81.2619 83.2525 80.9469C83.6425 80.6169 84.0325 80.3544 84.4225 80.1594C84.8275 79.9494 85.2025 79.8444 85.5475 79.8444C85.9825 79.8444 86.3425 79.9869 86.6275 80.2719C86.9275 80.5419 87.0775 80.8794 87.0775 81.2844C87.0775 81.6744 86.95 81.9969 86.695 82.2519C86.455 82.5069 86.14 82.6344 85.75 82.6344C85.51 82.6344 85.315 82.5894 85.165 82.4994C85.03 82.4094 84.91 82.3194 84.805 82.2294C84.7 82.1244 84.6025 82.0269 84.5125 81.9369C84.4225 81.8469 84.31 81.8019 84.175 81.8019C83.89 81.8019 83.56 81.9969 83.185 82.3869C82.81 82.7619 82.42 83.2794 82.015 83.9394C81.61 84.5994 81.205 85.3719 80.8 86.2569C80.41 87.1419 80.05 88.0944 79.72 89.1144L78.7075 92.2194H76.615L78.0775 87.5619C78.3625 86.6619 78.595 85.9194 78.775 85.3344C78.97 84.7344 79.12 84.2394 79.225 83.8494C79.33 83.4444 79.3975 83.1294 79.4275 82.9044C79.4725 82.6794 79.495 82.4844 79.495 82.3194C79.495 81.9894 79.3825 81.8244 79.1575 81.8244C79.0075 81.8244 78.82 81.8844 78.595 82.0044C78.385 82.1244 78.175 82.2744 77.965 82.4544C77.755 82.6344 77.5525 82.8369 77.3575 83.0619C77.1775 83.2869 77.0425 83.5044 76.9525 83.7144L76.3675 83.4219ZM88.0426 83.5119C88.0426 83.0169 88.1326 82.5594 88.3126 82.1394C88.5076 81.7194 88.7701 81.3594 89.1001 81.0594C89.4301 80.7444 89.8201 80.5044 90.2701 80.3394C90.7351 80.1594 91.2376 80.0694 91.7776 80.0694C92.4976 80.0694 93.0976 80.2494 93.5776 80.6094C94.0576 80.9694 94.2976 81.4344 94.2976 82.0044C94.2976 82.3194 94.2076 82.5669 94.0276 82.7469C93.8626 82.9269 93.6301 83.0169 93.3301 83.0169C92.9851 83.0169 92.7376 82.9194 92.5876 82.7244C92.4376 82.5144 92.3101 82.2894 92.2051 82.0494C92.1001 81.7944 91.9876 81.5619 91.8676 81.3519C91.7476 81.1419 91.5451 81.0369 91.2601 81.0369C90.9301 81.0369 90.6526 81.1794 90.4276 81.4644C90.2026 81.7494 90.0901 82.1019 90.0901 82.5219C90.0901 83.0169 90.2326 83.4819 90.5176 83.9169C90.8176 84.3369 91.1476 84.7794 91.5076 85.2444C91.8676 85.7094 92.1901 86.2194 92.4751 86.7744C92.7751 87.3294 92.9251 87.9819 92.9251 88.7319C92.9251 89.2419 92.8126 89.7219 92.5876 90.1719C92.3776 90.6219 92.0851 91.0194 91.7101 91.3644C91.3501 91.6944 90.9301 91.9569 90.4501 92.1519C89.9701 92.3469 89.4751 92.4444 88.9651 92.4444C88.0651 92.4444 87.3451 92.2494 86.8051 91.8594C86.2801 91.4694 86.0176 90.9594 86.0176 90.3294C86.0176 89.8944 86.1151 89.5569 86.3101 89.3169C86.5201 89.0619 86.7976 88.9344 87.1426 88.9344C87.7876 88.9344 88.1551 89.3769 88.2451 90.2619C88.2901 90.7419 88.3651 91.0644 88.4701 91.2294C88.5901 91.3794 88.8226 91.4544 89.1676 91.4544C89.7076 91.4544 90.1351 91.2969 90.4501 90.9819C90.7651 90.6519 90.9226 90.2019 90.9226 89.6319C90.9226 89.0319 90.7726 88.4994 90.4726 88.0344C90.1726 87.5694 89.8426 87.1194 89.4826 86.6844C89.1226 86.2344 88.7926 85.7619 88.4926 85.2669C88.1926 84.7719 88.0426 84.1869 88.0426 83.5119Z" fill="black"/>
<path d="M69.5617 121.653C70.0199 121.64 70.4413 121.741 70.826 121.954C71.2107 122.171 71.5218 122.466 71.7592 122.838C71.9928 123.211 72.1158 123.626 72.1281 124.084C72.1406 124.546 72.0402 124.968 71.8269 125.349C71.6099 125.733 71.3151 126.043 70.9424 126.276C70.5699 126.514 70.1546 126.638 69.6964 126.651C69.2344 126.663 68.813 126.561 68.432 126.344C68.0473 126.131 67.7382 125.838 67.5046 125.465C67.2673 125.096 67.1424 124.681 67.13 124.219C67.1176 123.761 67.2199 123.339 67.4369 122.955C67.6501 122.57 67.943 122.259 68.3155 122.022C68.6844 121.788 69.0998 121.665 69.5617 121.653ZM36.2325 115.821C36.8261 114.717 37.5413 113.882 38.3783 113.317C39.2101 112.754 40.0934 112.454 41.0282 112.419C41.9597 112.382 42.8742 112.605 43.7717 113.087C44.6693 113.57 45.3613 114.21 45.8478 115.009C46.3292 115.81 46.5661 116.714 46.5584 117.72C46.5456 118.728 46.2433 119.783 45.6516 120.884C45.058 121.988 44.3453 122.822 43.5135 123.385C42.6766 123.95 41.7924 124.251 40.8609 124.288C39.9261 124.323 39.0099 124.1 38.1124 123.617C37.2148 123.135 36.5245 122.495 36.0413 121.698C35.5548 120.899 35.3179 119.996 35.3307 118.988C35.3384 117.981 35.639 116.926 36.2325 115.821ZM38.0993 116.825C37.6815 117.602 37.4509 118.323 37.4076 118.988C37.3591 119.654 37.4749 120.239 37.7549 120.742C38.0332 121.248 38.4509 121.651 39.0081 121.951C39.5653 122.25 40.1318 122.376 40.7077 122.329C41.2819 122.285 41.8351 122.06 42.3673 121.653C42.8945 121.249 43.367 120.658 43.7848 119.88C44.2026 119.103 44.4357 118.381 44.4842 117.715C44.5276 117.05 44.4101 116.464 44.1319 115.958C43.8519 115.455 43.4332 115.053 42.876 114.754C42.3188 114.455 41.7532 114.327 41.1791 114.371C40.6031 114.418 40.0516 114.644 39.5245 115.049C38.9922 115.455 38.5172 116.047 38.0993 116.825ZM38.2949 110.197L30.9465 119.22L25.1664 114.512L26.2823 113.142L30.4279 116.518L32.4229 114.069L28.6738 111.016L29.7897 109.645L33.5388 112.699L36.6604 108.866L38.2949 110.197ZM29.4188 102.266L20.1358 109.283L17.5046 105.801C16.9656 105.088 16.6373 104.396 16.5196 103.726C16.3997 103.052 16.4697 102.422 16.7296 101.836C16.9842 101.25 17.4077 100.732 17.9999 100.285C18.5952 99.8348 19.2079 99.5711 19.8379 99.4938C20.4626 99.4157 21.0794 99.5312 21.6881 99.8403C22.2938 100.152 22.8662 100.664 23.4052 101.377L25.2792 103.856L23.8832 104.912L22.1804 102.659C21.8652 102.242 21.5497 101.944 21.2339 101.765C20.9151 101.588 20.5959 101.521 20.2763 101.563C19.9515 101.604 19.6244 101.749 19.295 101.998C18.9656 102.247 18.7337 102.524 18.5992 102.83C18.4617 103.138 18.4331 103.471 18.5132 103.828C18.5903 104.188 18.7876 104.578 19.1051 104.998L20.2699 106.539L28.1477 100.584L29.4188 102.266ZM21.5877 100.65L24.057 95.1723L25.4754 97.0489L22.9752 102.486L21.5877 100.65ZM23.8582 94.7255L13.5016 100.031L10.0511 93.2949L11.6238 92.4892L14.1132 97.3489L16.9249 95.9087L14.6142 91.3979L16.1869 90.5922L18.4976 95.103L21.3244 93.655L18.8143 88.7548L20.387 87.9492L23.8582 94.7255ZM10.08 83.3884C9.62127 83.5849 9.31758 83.912 9.16896 84.3697C9.01922 84.8239 9.03612 85.3497 9.21968 85.9471C9.34872 86.3671 9.52278 86.7079 9.74184 86.9695C9.9609 87.2311 10.2035 87.4082 10.4697 87.5008C10.7359 87.5934 11.009 87.5986 11.2889 87.5166C11.5206 87.4454 11.7055 87.3311 11.8434 87.1739C11.9802 87.0129 12.08 86.8218 12.1427 86.6004C12.2019 86.3802 12.2368 86.1456 12.2474 85.8966C12.2581 85.6476 12.2556 85.4007 12.2398 85.1559L12.1801 84.033C12.1489 83.583 12.157 83.1387 12.2045 82.7001C12.2509 82.2578 12.3536 81.8439 12.5125 81.4583C12.6703 81.069 12.9006 80.7288 13.2034 80.4376C13.5063 80.1464 13.8985 79.9269 14.38 79.7789C15.0318 79.5787 15.6569 79.5689 16.2553 79.7496C16.85 79.9314 17.3836 80.2945 17.856 80.8389C18.3236 81.3808 18.6943 82.097 18.9679 82.9878C19.2338 83.8532 19.3307 84.6456 19.2585 85.3652C19.1853 86.0812 18.9466 86.6974 18.5426 87.2138C18.1375 87.7266 17.57 88.111 16.8403 88.3669L16.2312 86.3845C16.6097 86.2365 16.8953 86.018 17.0878 85.729C17.2804 85.44 17.3883 85.1077 17.4116 84.732C17.4337 84.3527 17.3803 83.9531 17.2512 83.533C17.1166 83.0949 16.9335 82.7311 16.702 82.4417C16.4656 82.1497 16.2009 81.9458 15.9077 81.8298C15.6109 81.7149 15.3026 81.7046 14.9828 81.7989C14.6943 81.8915 14.4814 82.05 14.3443 82.2744C14.2036 82.5 14.116 82.7825 14.0816 83.1219C14.0425 83.4589 14.0334 83.8421 14.0544 84.2715L14.1173 85.6371C14.1634 86.6255 14.0293 87.4592 13.7149 88.1383C13.3957 88.8149 12.8378 89.2756 12.0412 89.5204C11.3859 89.7217 10.7575 89.7206 10.156 89.5171C9.55344 89.3099 9.02181 88.9403 8.56113 88.4081C8.09683 87.8771 7.7451 87.2224 7.50592 86.4439C7.26341 85.6546 7.18852 84.9207 7.28126 84.2424C7.36927 83.5615 7.60359 82.9763 7.98421 82.4869C8.36121 81.9986 8.86125 81.6528 9.48431 81.4495L10.08 83.3884ZM7.63305 79.6873L5.87825 79.895L4.78682 70.6753L6.54161 70.4676L6.96443 74.0392L16.7653 72.879L17.0111 74.9554L7.21023 76.1157L7.63305 79.6873ZM11.4084 58.3659C12.6587 58.459 13.7122 58.7729 14.5688 59.3076C15.4219 59.8383 16.0546 60.5236 16.4669 61.3633C16.8795 62.1993 17.048 63.1253 16.9723 64.1414C16.8967 65.1576 16.5928 66.0503 16.0608 66.8198C15.5252 67.5852 14.7962 68.169 13.8736 68.5714C12.9475 68.9696 11.8612 69.1224 10.6147 69.0296C9.36435 68.9365 8.31263 68.6247 7.45952 68.094C6.60291 67.5592 5.96832 66.8738 5.55574 66.0379C5.14345 65.1981 4.97512 64.2702 5.05075 63.2541C5.12638 62.238 5.43009 61.3471 5.96188 60.5814C6.49394 59.8119 7.223 59.2281 8.14906 58.8298C9.07162 58.4275 10.1581 58.2728 11.4084 58.3659ZM11.2511 60.4794C10.3709 60.4139 9.61842 60.4965 8.9935 60.7273C8.36509 60.954 7.87802 61.2976 7.53228 61.758C7.18277 62.2182 6.98453 62.7637 6.93758 63.3945C6.89063 64.0254 7.00592 64.5942 7.28346 65.101C7.55722 65.6076 7.98792 66.0214 8.57556 66.3424C9.1597 66.6594 9.89185 66.8506 10.772 66.9161C11.6521 66.9816 12.4064 66.901 13.0348 66.6743C13.6597 66.4436 14.1469 66.0981 14.4965 65.6379C14.8422 65.1775 15.0385 64.6318 15.0855 64.001C15.1324 63.3702 15.019 62.8015 14.7453 62.2949C14.4677 61.788 14.0369 61.3761 13.4528 61.0592C12.8651 60.7382 12.1312 60.5449 11.2511 60.4794ZM17.3816 58.0089L6.17436 54.8781L7.3484 50.6753C7.58892 49.8144 7.94028 49.1338 8.4025 48.6337C8.86573 48.1299 9.4091 47.8038 10.0326 47.6555C10.6535 47.5025 11.3214 47.5259 12.0365 47.7256C12.7552 47.9264 13.3362 48.2539 13.7796 48.7081C14.2204 49.1577 14.5023 49.7182 14.6254 50.3897C14.7449 51.0602 14.6843 51.826 14.4438 52.687L13.6076 55.6803L11.9221 55.2095L12.6819 52.4897C12.8225 51.9863 12.8684 51.5547 12.8194 51.1949C12.7668 50.8341 12.627 50.5394 12.3998 50.3108C12.17 50.0775 11.8563 49.9053 11.4586 49.7942C11.061 49.6831 10.6998 49.6667 10.3751 49.7451C10.0467 49.8225 9.76467 50.0013 9.52906 50.2816C9.2898 50.5609 9.09934 50.9541 8.95768 51.4612L8.43792 53.3217L17.9488 55.9786L17.3816 58.0089ZM13.9207 50.8005L19.7741 49.4447L19.1412 51.7102L13.3016 53.0168L13.9207 50.8005ZM10.1817 42.2713L20.8925 46.8193L20.0686 48.7595L9.3578 44.2116L10.1817 42.2713ZM16.5432 31.3263L26.5007 37.3474L25.5305 38.9519L15.9109 39.5425L15.8609 39.6252L22.6435 43.7264L21.5528 45.5302L11.5953 39.5092L12.5713 37.895L22.1929 37.3121L22.2458 37.2246L15.4584 33.1204L16.5432 31.3263ZM26.6829 25.4067C26.3942 25.2662 26.1044 25.1739 25.8135 25.1299C25.5224 25.0805 25.2344 25.0806 24.9492 25.1302C24.6667 25.177 24.3927 25.2785 24.1272 25.4346C23.8589 25.5882 23.6056 25.7922 23.3675 26.0466C22.9403 26.5028 22.6745 27.0167 22.5701 27.5883C22.4656 28.1599 22.5402 28.7564 22.7938 29.3778C23.0473 29.9939 23.492 30.5996 24.128 31.195C24.7695 31.7956 25.4073 32.2034 26.0415 32.4183C26.6757 32.6333 27.2772 32.6697 27.846 32.5277C28.4121 32.3831 28.9177 32.073 29.363 31.5974C29.7668 31.1661 30.0334 30.7151 30.1626 30.2445C30.2944 29.7712 30.2885 29.3065 30.1448 28.8502C29.9984 28.3915 29.7192 27.9692 29.3072 27.5835L29.6873 27.2855L27.5282 29.5917L26.3254 28.4655L29.5523 25.0188L30.5726 25.974C31.2999 26.6549 31.784 27.3987 32.0249 28.2054C32.2659 29.0122 32.2765 29.8212 32.0566 30.6324C31.8341 31.441 31.394 32.1965 30.7364 32.8988C30.0038 33.6814 29.1849 34.2041 28.2797 34.4671C27.3744 34.7247 26.4414 34.7152 25.481 34.4387C24.5203 34.1568 23.592 33.5964 22.6961 32.7577C22.0104 32.1156 21.4885 31.4454 21.1305 30.7471C20.7751 30.0459 20.5738 29.3437 20.5265 28.6405C20.4764 27.9346 20.5746 27.2534 20.8209 26.5967C21.0645 25.9375 21.4465 25.33 21.9669 24.7742C22.407 24.3041 22.8864 23.9306 23.4052 23.6535C23.9213 23.3739 24.4527 23.1943 24.9994 23.1146C25.5488 23.0322 26.092 23.0505 26.6293 23.1695C27.1665 23.2884 27.6736 23.5116 28.1507 23.8389L26.6829 25.4067ZM38.3919 15.9042C38.0854 15.5104 37.6919 15.2997 37.2114 15.2722C36.7341 15.2427 36.2299 15.3926 35.6986 15.7219C35.3252 15.9534 35.0397 16.2083 34.8424 16.4866C34.645 16.7649 34.5353 17.0446 34.5134 17.3256C34.4915 17.6065 34.5557 17.872 34.7062 18.1219C34.8339 18.3279 34.9913 18.4777 35.1785 18.5711C35.3689 18.6626 35.5791 18.7105 35.8091 18.715C36.0372 18.7163 36.273 18.6905 36.5165 18.6376C36.76 18.5847 36.9981 18.5195 37.2309 18.4421L38.3018 18.0992C38.7292 17.9546 39.161 17.8496 39.5973 17.7842C40.0368 17.7168 40.4632 17.7109 40.8766 17.7667C41.2932 17.8204 41.6807 17.9568 42.0393 18.1757C42.3978 18.3947 42.7098 18.7183 42.9752 19.1465C43.3344 19.726 43.5026 20.3281 43.4798 20.9528C43.455 21.5742 43.2393 22.1825 42.8328 22.7777C42.4274 23.3676 41.8288 23.908 41.0367 24.3989C40.2673 24.8759 39.5254 25.1708 38.811 25.2838C38.0999 25.3948 37.4433 25.3205 36.8412 25.0608C36.2423 24.7992 35.7265 24.348 35.2936 23.7072L37.0563 22.6146C37.2956 22.9431 37.5795 23.1638 37.9079 23.2767C38.2363 23.3895 38.5852 23.4095 38.9544 23.3366C39.3269 23.2617 39.6999 23.1085 40.0734 22.877C40.4629 22.6355 40.7683 22.3661 40.9894 22.0686C41.2118 21.7658 41.3418 21.458 41.3795 21.1449C41.4152 20.8286 41.3469 20.5279 41.1745 20.2425C41.0117 19.987 40.8043 19.8214 40.5524 19.7457C40.2985 19.6669 40.0031 19.654 39.666 19.7069C39.3302 19.7546 38.9572 19.8432 38.5472 19.9726L37.2423 20.3802C36.2981 20.6758 35.4576 20.7578 34.7209 20.6262C33.9854 20.4893 33.3982 20.0668 32.9592 19.3585C32.598 18.7757 32.4394 18.1676 32.4835 17.5342C32.5309 16.8988 32.7534 16.2907 33.1511 15.71C33.5467 15.126 34.0907 14.6196 34.7829 14.1905C35.4847 13.7555 36.1755 13.4967 36.8552 13.4141C37.5361 13.3263 38.1616 13.4043 38.7316 13.6481C39.2997 13.8888 39.7611 14.2846 40.116 14.8356L38.3919 15.9042ZM41.3893 10.7316L43.8222 9.87438L49.8825 16.6789L50.0111 16.6336L50.4672 7.53298L52.9001 6.67572L56.7672 17.6507L54.8595 18.3229L52.2027 10.783L52.1009 10.8189L51.7132 19.3954L50.2877 19.8977L44.6035 13.4425L44.5017 13.4784L47.1641 21.0344L45.2563 21.7066L41.3893 10.7316ZM58.0897 5.50582L60.0811 16.9705L58.0043 17.3313L56.0128 5.86657L58.0897 5.50582ZM61.6754 16.7885L61.0198 5.17067L63.1244 5.0519L63.6805 14.9055L68.7973 14.6168L68.8969 16.381L61.6754 16.7885ZM69.7739 16.4404L70.987 4.86746L78.514 5.65647L78.3297 7.41389L72.8993 6.84464L72.5699 9.98651L77.6105 10.5149L77.4263 12.2723L72.3857 11.7439L72.0546 14.9028L77.5303 15.4767L77.346 17.2342L69.7739 16.4404ZM86.7967 11.0992C86.8832 10.6077 86.7755 10.1745 86.4736 9.79972C86.1753 9.42594 85.7259 9.15249 85.1254 8.97934C84.7032 8.85762 84.3227 8.8169 83.9838 8.85719C83.645 8.89748 83.3641 9.00373 83.141 9.17594C82.9179 9.34815 82.7641 9.57385 82.6796 9.85305C82.6125 10.086 82.607 10.3032 82.6632 10.5047C82.7231 10.7072 82.8285 10.8953 82.9795 11.0689C83.1316 11.2389 83.3089 11.3965 83.5115 11.5416C83.714 11.6868 83.9221 11.8197 84.1357 11.9404L85.1083 12.5046C85.5022 12.7246 85.8697 12.9745 86.2109 13.2542C86.5557 13.5349 86.846 13.8473 87.082 14.1913C87.3215 14.5363 87.4803 14.9152 87.5584 15.328C87.6365 15.7408 87.6058 16.1892 87.4662 16.6733C87.2773 17.3284 86.9436 17.857 86.465 18.2591C85.9874 18.6576 85.3916 18.9056 84.6775 19.0033C83.9681 19.0984 83.1657 19.0168 82.2704 18.7587C81.4005 18.5079 80.6841 18.1555 80.1212 17.7015C79.5619 17.2485 79.1766 16.7117 78.9653 16.0909C78.7576 15.4713 78.7463 14.786 78.9312 14.0351L80.9239 14.6096C80.8407 15.0075 80.8675 15.366 81.004 15.6853C81.1406 16.0046 81.3598 16.2767 81.6616 16.5017C81.967 16.7277 82.3308 16.9016 82.753 17.0233C83.1934 17.1503 83.5981 17.196 83.967 17.1605C84.3407 17.1223 84.6563 17.0123 84.9137 16.8303C85.1723 16.6446 85.3495 16.3922 85.4455 16.0729C85.5258 15.7807 85.5095 15.5158 85.3967 15.2783C85.2849 15.0371 85.0963 14.8093 84.8309 14.5948C84.5702 14.3778 84.2544 14.1605 83.8834 13.9432L82.7058 13.2489C81.8532 12.7468 81.2286 12.1785 80.8321 11.5438C80.4403 10.9065 80.3598 10.1875 80.5907 9.38679C80.7806 8.72802 81.1253 8.20255 81.6247 7.8104C82.1277 7.4193 82.7279 7.17645 83.4254 7.08187C84.1239 6.98365 84.8644 7.04734 85.6469 7.27295C86.4403 7.50171 87.0956 7.84044 87.6128 8.28914C88.1346 8.73526 88.4963 9.25149 88.6978 9.83784C88.9004 10.4205 88.9163 11.0283 88.7457 11.6611L86.7967 11.0992ZM92.3183 22.8184L95.9645 11.2904L97.859 12.5355L94.9149 20.833L95.0051 20.8923L101.572 14.9757L103.296 16.1084L100.472 24.4918L100.557 24.548L107.009 18.5486L108.903 19.7936L99.7683 27.7144L98.0305 26.5723L100.568 18.4697L100.492 18.4198L94.0562 23.9605L92.3183 22.8184ZM112.289 22.811L104.29 31.2618L102.759 29.8127L110.758 21.3619L112.289 22.811ZM112.655 25.7503L114.025 24.6343L119.889 31.8326L118.519 32.9485L116.247 30.16L108.595 36.393L107.275 34.7718L114.927 28.5388L112.655 25.7503ZM111.168 39.7286L121.453 34.2867L122.439 36.1499L118.085 38.4537L120.606 43.2197L124.961 40.916L125.949 42.7842L115.664 48.2261L114.675 46.3579L119.044 44.0461L116.523 39.2801L112.153 41.5918L111.168 39.7286ZM117.271 52.6345L128.618 50.0544L129.585 54.3094C129.783 55.1811 129.787 55.9494 129.596 56.6143C129.407 57.2829 129.062 57.8333 128.562 58.2655C128.066 58.7005 127.458 59 126.738 59.1637C126.011 59.3292 125.329 59.3229 124.695 59.1448C124.06 58.9667 123.512 58.6155 123.051 58.091C122.593 57.5657 122.265 56.8654 122.066 55.99L121.425 53.17L123.115 52.7857L123.693 55.3288C123.809 55.8385 123.992 56.2357 124.243 56.5204C124.495 56.8051 124.793 56.9898 125.139 57.0744C125.485 57.1626 125.859 57.161 126.262 57.0695C126.665 56.9779 127.001 56.8179 127.272 56.5893C127.543 56.3645 127.726 56.0684 127.821 55.701C127.921 55.3365 127.912 54.8976 127.796 54.3842L127.367 52.5004L117.738 54.69L117.271 52.6345ZM119.209 61.6614L130.834 61.1327L131.032 65.4919C131.072 66.3849 130.951 67.1412 130.669 67.7607C130.386 68.384 129.972 68.8636 129.426 69.1993C128.884 69.5387 128.242 69.7253 127.5 69.759C126.755 69.7929 126.101 69.6634 125.538 69.3705C124.978 69.0812 124.535 68.6368 124.209 68.0374C123.886 67.4379 123.704 66.6916 123.663 65.7985L123.522 62.6938L125.27 62.6143L125.398 65.4352C125.422 65.9574 125.514 66.3817 125.672 66.7082C125.835 67.0345 126.06 67.2707 126.347 67.4169C126.639 67.5667 126.99 67.6322 127.403 67.6135C127.815 67.5947 128.164 67.4974 128.447 67.3214C128.735 67.1453 128.947 66.8873 129.083 66.5474C129.223 66.2073 129.281 65.7743 129.258 65.2484L129.17 63.3185L119.305 63.7672L119.209 61.6614ZM124.75 67.427L119.613 70.5442L119.506 68.1944L124.645 65.1282L124.75 67.427ZM119.523 71.0128L131.061 72.5264L130.076 80.0302L128.324 79.8004L129.035 74.3866L125.902 73.9757L125.243 79.0008L123.491 78.7709L124.15 73.7458L121.001 73.3327L120.285 78.7916L118.533 78.5617L119.523 71.0128ZM122.517 91.4003L123.179 89.381C123.529 89.4319 123.857 89.4219 124.163 89.3509C124.473 89.2811 124.756 89.1605 125.011 88.9891C125.267 88.8178 125.488 88.5992 125.675 88.3336C125.864 88.0727 126.014 87.7731 126.125 87.4348C126.322 86.8336 126.345 86.2514 126.195 85.6879C126.048 85.1257 125.728 84.6182 125.235 84.1655C124.745 83.7139 124.085 83.3519 123.253 83.0793C122.407 82.8021 121.652 82.6998 120.986 82.7726C120.323 82.8502 119.768 83.071 119.322 83.4349C118.878 83.8037 118.558 84.2868 118.362 84.8843C118.254 85.2155 118.196 85.5392 118.188 85.8555C118.182 86.1765 118.228 86.4805 118.325 86.7675C118.421 87.0581 118.569 87.3239 118.769 87.5649C118.968 87.8095 119.22 88.0154 119.523 88.1828L118.851 90.1985C118.35 89.9507 117.911 89.6253 117.532 89.2223C117.153 88.8229 116.853 88.3638 116.633 87.8451C116.416 87.3275 116.297 86.7663 116.276 86.1615C116.258 85.5578 116.357 84.9267 116.573 84.268C116.892 83.2961 117.401 82.5024 118.101 81.8868C118.801 81.2712 119.648 80.8831 120.642 80.7224C121.635 80.5617 122.726 80.6761 123.913 81.0655C125.105 81.456 126.051 82.0113 126.752 82.7313C127.456 83.4525 127.908 84.2683 128.108 85.1789C128.308 86.0895 128.249 87.0271 127.933 87.9917C127.731 88.6072 127.457 89.1512 127.111 89.6237C126.765 90.0962 126.357 90.4845 125.886 90.7887C125.419 91.0941 124.901 91.3009 124.331 91.4092C123.764 91.5222 123.159 91.5192 122.517 91.4003ZM124.231 97.0465L113.822 91.8454L114.764 89.9598L125.174 95.1609L124.231 97.0465ZM116.546 103.128C116.988 103.359 117.434 103.388 117.882 103.214C118.329 103.044 118.726 102.698 119.073 102.179C119.317 101.813 119.472 101.463 119.536 101.128C119.601 100.793 119.585 100.493 119.488 100.228C119.392 99.9634 119.224 99.7484 118.983 99.5832C118.782 99.4485 118.576 99.3773 118.367 99.3697C118.156 99.3653 117.945 99.4086 117.734 99.4998C117.526 99.593 117.322 99.7142 117.122 99.8631C116.922 100.012 116.732 100.17 116.552 100.337L115.72 101.092C115.39 101.401 115.041 101.675 114.671 101.915C114.298 102.159 113.913 102.34 113.513 102.461C113.112 102.584 112.703 102.621 112.286 102.57C111.869 102.519 111.451 102.353 111.032 102.073C110.465 101.695 110.063 101.216 109.825 100.638C109.59 100.062 109.535 99.419 109.658 98.7089C109.783 98.0041 110.104 97.2644 110.622 96.4896C111.125 95.737 111.678 95.1614 112.282 94.7628C112.883 94.3675 113.512 94.1633 114.167 94.1504C114.821 94.1406 115.477 94.3379 116.136 94.742L114.984 96.4663C114.63 96.2663 114.281 96.1829 113.935 96.2161C113.589 96.2493 113.263 96.3755 112.957 96.5947C112.649 96.8171 112.373 97.111 112.129 97.4763C111.874 97.8573 111.708 98.2291 111.63 98.5914C111.553 98.959 111.562 99.2931 111.657 99.5937C111.755 99.8964 111.942 100.142 112.217 100.33C112.471 100.495 112.729 100.56 112.989 100.525C113.253 100.492 113.527 100.381 113.812 100.193C114.098 100.011 114.401 99.7759 114.721 99.4885L115.74 98.5772C116.477 97.9172 117.208 97.4947 117.933 97.3096C118.659 97.1297 119.369 97.2713 120.062 97.7343C120.632 98.1153 121.028 98.6032 121.25 99.1981C121.47 99.7961 121.519 100.442 121.397 101.135C121.279 101.83 120.993 102.517 120.541 103.194C120.082 103.88 119.56 104.402 118.976 104.758C118.392 105.12 117.791 105.308 117.171 105.322C116.554 105.338 115.97 105.169 115.419 104.814L116.546 103.128ZM115 110.364L106.23 102.716L107.616 101.127L116.385 108.775L115 110.364ZM101.107 114.911C100.291 113.959 99.7701 112.991 99.5445 112.007C99.3186 111.028 99.3577 110.096 99.6618 109.211C99.963 108.329 100.5 107.556 101.274 106.893C102.047 106.23 102.894 105.815 103.815 105.649C104.735 105.488 105.663 105.593 106.599 105.963C107.535 106.338 108.41 107 109.223 107.949C110.04 108.9 110.561 109.866 110.787 110.845C111.012 111.829 110.975 112.762 110.673 113.644C110.369 114.529 109.831 115.303 109.057 115.966C108.284 116.63 107.438 117.043 106.52 117.207C105.6 117.373 104.672 117.268 103.736 116.893C102.8 116.523 101.924 115.863 101.107 114.911ZM102.716 113.531C103.291 114.201 103.88 114.676 104.485 114.956C105.089 115.241 105.676 115.344 106.246 115.264C106.819 115.187 107.345 114.942 107.825 114.53C108.305 114.119 108.627 113.635 108.79 113.081C108.956 112.53 108.945 111.933 108.758 111.29C108.571 110.652 108.19 109.998 107.615 109.329C107.04 108.659 106.451 108.181 105.847 107.896C105.242 107.616 104.654 107.514 104.081 107.591C103.511 107.671 102.986 107.917 102.506 108.329C102.025 108.741 101.702 109.223 101.537 109.774C101.373 110.328 101.386 110.924 101.573 111.562C101.76 112.205 102.141 112.861 102.716 113.531ZM93.8474 125.668L88.2961 115.441L89.944 114.547L98.544 118.897L98.6289 118.851L94.8477 111.885L96.7003 110.879L102.252 121.106L100.594 122.006L91.9959 117.648L91.906 117.697L95.69 124.668L93.8474 125.668Z" fill="black"/>
</svg>
