<svg width="50" height="50" viewBox="0 0 50 50" fill="none" xmlns="http://www.w3.org/2000/svg">
<path d="M14 31L23.9694 35.6488L18.0527 48.3371L13.9133 44.2001L8.08334 43.6883L14 31Z" stroke="black" stroke-width="2" stroke-linejoin="round"/>
<path d="M36 31L26.0306 35.6488L31.9473 48.3371L36.0867 44.2001L41.9167 43.6883L36 31Z" stroke="black" stroke-width="2" stroke-linejoin="round"/>
<path d="M23.6988 2.11467C24.4477 1.47316 25.5523 1.47316 26.3012 2.11467L28.6313 4.11079C29.0911 4.50472 29.7046 4.66912 30.2998 4.55789L33.3158 3.99424C34.2851 3.8131 35.2417 4.36543 35.5695 5.29541L36.5894 8.18915C36.7906 8.76022 37.2398 9.20937 37.8109 9.41063L40.7046 10.4305C41.6346 10.7583 42.1869 11.7149 42.0058 12.6842L41.4421 15.7002C41.3309 16.2954 41.4953 16.9089 41.8892 17.3687L43.8853 19.6988C44.5268 20.4477 44.5268 21.5523 43.8853 22.3012L41.8892 24.6313C41.4953 25.0911 41.3309 25.7046 41.4421 26.2998L42.0058 29.3158C42.1869 30.2851 41.6346 31.2417 40.7046 31.5695L37.8109 32.5894C37.2398 32.7906 36.7906 33.2398 36.5894 33.8109L35.5695 36.7046C35.2417 37.6346 34.2851 38.1869 33.3158 38.0058L30.2998 37.4421C29.7046 37.3309 29.0911 37.4953 28.6313 37.8892L26.3012 39.8853C25.5523 40.5268 24.4477 40.5268 23.6988 39.8853L21.3687 37.8892C20.9089 37.4953 20.2954 37.3309 19.7002 37.4421L16.6842 38.0058C15.7149 38.1869 14.7583 37.6346 14.4305 36.7046L13.4106 33.8109C13.2094 33.2398 12.7602 32.7906 12.1891 32.5894L9.29541 31.5695C8.36543 31.2417 7.8131 30.2851 7.99424 29.3158L8.55789 26.2998C8.66912 25.7046 8.50472 25.0911 8.11079 24.6313L6.11467 22.3012C5.47316 21.5523 5.47316 20.4477 6.11467 19.6988L8.11079 17.3687C8.50472 16.9089 8.66912 16.2954 8.55789 15.7002L7.99424 12.6842C7.8131 11.7149 8.36543 10.7583 9.29541 10.4305L12.1891 9.41063C12.7602 9.20937 13.2094 8.76022 13.4106 8.18915L14.4305 5.29541C14.7583 4.36543 15.7149 3.8131 16.6842 3.99424L19.7002 4.55789C20.2954 4.66912 20.9089 4.50472 21.3687 4.11079L23.6988 2.11467Z" fill="#F7F4EE" stroke="black" stroke-width="2" stroke-linejoin="round"/>
<circle cx="25" cy="21" r="11" stroke="black" stroke-width="2"/>
<path d="M20 21L24 25L31 18" stroke="black" stroke-width="2" stroke-linecap="round" stroke-linejoin="round"/>
</svg>
