<svg width="50" height="50" viewBox="0 0 50 50" fill="none" xmlns="http://www.w3.org/2000/svg">
<path d="M48 47C48.5523 47 49 47.4477 49 48C49 48.5523 48.5523 49 48 49H2C1.44772 49 1 48.5523 1 48C1 47.4477 1.44772 47 2 47H48Z" fill="black"/>
<path d="M18.1211 7.25478C20.6081 4.9099 24.4247 4.70369 27.1494 6.76747L39.6035 16.203C39.9458 16.4624 40.0849 16.9111 39.9482 17.3183C39.8114 17.7254 39.4295 17.9999 39 17.9999H37C36.8553 17.9999 36.7123 17.9687 36.581 17.9081L24.9199 12.5253C24.5219 12.3416 24.05 12.4388 23.7568 12.7645L16.7822 20.5145C16.4768 20.8542 16.4399 21.3581 16.6933 21.7382L25.832 35.4452C26.0964 35.8418 26.0441 36.3699 25.707 36.7069L19.707 42.7069C19.4951 42.9188 19.1995 43.0245 18.9013 42.995C18.6032 42.9655 18.3341 42.8038 18.1679 42.5546L6.97945 25.7714C5.08551 22.9305 5.51767 19.1381 8.00191 16.7958L18.1211 7.25478ZM25.9423 8.3622C23.9961 6.88779 21.2697 7.03491 19.4931 8.70986L9.37301 18.2509C7.59886 19.924 7.29079 22.6329 8.64351 24.662L19.1552 40.4296L23.7129 35.872L15.0293 22.8476C14.2688 21.7069 14.3789 20.1957 15.2959 19.1767L22.2705 11.4267C23.1501 10.4493 24.5639 10.1588 25.7578 10.7099L34.1601 14.5878L25.9423 8.3622Z" fill="black"/>
<path d="M11 42C11 37.0294 15.0294 33 20 33Lnan nanL20 33C24.9706 33 29 37.0294 29 42V48H11V42Z" fill="white"/>
<path d="M28 42C28 37.5817 24.4183 34 20 34C15.5817 34 12 37.5817 12 42V47H28V42ZM30 49H10V42C10 36.4772 14.4772 32 20 32C25.5228 32 30 36.4772 30 42V49Z" fill="black"/>
<path d="M41 20C41 18.3431 39.6569 17 38 17Lnan nanL38 17C36.3431 17 35 18.3431 35 20L35 25L41 25L41 20Z" fill="white"/>
<path d="M36 24L40 24L40 20C40 18.8954 39.1046 18 38 18C36.8954 18 36 18.8954 36 20L36 24ZM34 20C34 17.7909 35.7909 16 38 16C40.2091 16 42 17.7909 42 20L42 26L34 26L34 20Z" fill="black"/>
<path d="M37 26C37 25.4477 37.4477 25 38 25C38.5523 25 39 25.4477 39 26V29C39 29.5523 38.5523 30 38 30C37.4477 30 37 29.5523 37 29V26Z" fill="black"/>
<path d="M13 21.5C13 22.3284 12.3284 23 11.5 23C10.6716 23 10 22.3284 10 21.5C10 20.6716 10.6716 20 11.5 20C12.3284 20 13 20.6716 13 21.5Z" fill="black"/>
<path d="M24 9C24 9.55228 23.5523 10 23 10C22.4477 10 22 9.55228 22 9C22 8.44772 22.4477 8 23 8C23.5523 8 24 8.44772 24 9Z" fill="black"/>
</svg>
