<svg width="31" height="40" viewBox="0 0 31 40" fill="none" xmlns="http://www.w3.org/2000/svg">
<g clip-path="url(#clip0_2053_14282)">
<path d="M15.571 2.68579C6.88297 0.682015 0.93552 2.65863 2.36787 12.8917C3.4429 18.1547 3.39747 18.2422 0.993056 13.2509C-3.26766 2.68579 7.01318 -4.01659 15.571 2.68579Z" fill="#26AAE1"/>
<path d="M13.8994 4.27615C16.534 3.10527 18.8839 0.775583 21.9182 0.241445C29.9248 -0.694051 33.2952 7.42666 29.3464 13.4863C28.447 15.0404 27.4084 16.4678 26.5059 17.1437C26.3788 17.0713 27.2055 15.4749 28.0443 12.9219C30.0096 7.92458 28.2987 2.29652 22.0938 2.32066C19.2987 2.43533 16.6642 4.58698 13.9024 4.27917L13.8994 4.27615Z" fill="#004AAD"/>
<path d="M24.0688 18.6828C17.7701 20.2882 10.8657 20.6866 4.78809 17.9978C5.43007 17.3912 6.05086 16.7756 6.64742 16.1449C11.9499 18.9785 18.1184 19.1143 24.0022 18.3448L24.0658 18.6798L24.0688 18.6828Z" fill="#004AAD"/>
<path d="M7.34366 19.6062C12.1313 22.1652 17.6972 22.2859 23.0087 21.5919L23.0662 21.8967C17.3822 23.3452 11.1501 23.7073 5.66602 21.278C6.24744 20.7288 6.80463 20.1766 7.34366 19.6062Z" fill="#004AAD"/>
<path d="M8.03696 23.0646C12.3068 25.346 17.27 25.4546 22.0092 24.836L22.0607 25.1076C16.9914 26.3992 11.4316 26.7221 6.54102 24.5584C7.05884 24.0695 7.5585 23.5746 8.03999 23.0676L8.03696 23.0646Z" fill="#26AAE1"/>
<path d="M8.73037 26.5228C12.4823 28.5296 16.846 28.6232 21.0098 28.08L21.0553 28.3184C16.6007 29.4561 11.7132 29.7367 7.41309 27.8355C7.86732 27.407 8.30641 26.9725 8.73037 26.5258V26.5228Z" fill="#26AAE1"/>
<path d="M20.0527 31.5262C16.2371 32.504 11.9855 32.7484 8.29102 31.1098C8.68469 30.7386 9.06019 30.3644 9.4266 29.9781C12.6608 31.7073 16.4248 31.7888 20.0133 31.321L20.0527 31.5262Z" fill="#26AAE1"/>
<path d="M20.0527 34.0942C16.2371 35.072 11.9855 35.3164 8.29102 33.6778C8.68469 33.3066 9.06019 32.9324 9.4266 32.5461C12.6608 34.2753 16.4248 34.3568 20.0133 33.889L20.0527 34.0942Z" fill="#26AAE1"/>
<path d="M20.0527 36.6594C16.2371 37.6372 11.9855 37.8816 8.29102 36.243C8.68469 35.8718 9.06019 35.4976 9.4266 35.1113C12.6608 36.8405 16.4248 36.922 20.0133 36.4542L20.0527 36.6594Z" fill="#004AAD"/>
<path d="M20.0527 39.2245C16.2371 40.2022 11.9855 40.4467 8.29102 38.808C8.68469 38.4369 9.06019 38.0627 9.4266 37.6764C12.6608 39.4056 16.4248 39.487 20.0133 39.0193L20.0527 39.2245Z" fill="#004AAD"/>
</g>
<defs>
<clipPath id="clip0_2053_14282">
<rect width="31" height="40" fill="white"/>
</clipPath>
</defs>
</svg>
