<svg width="55" height="16" viewBox="0 0 55 16" fill="none" xmlns="http://www.w3.org/2000/svg">
<g clip-path="url(#clip0_224_7939)">
<path fill-rule="evenodd" clip-rule="evenodd" d="M8.12823 15.5C12.2614 15.5 15.6168 12.1395 15.6168 8.00001C15.6168 3.86057 12.2614 0.5 8.12823 0.5C3.9951 0.5 0.639648 3.86057 0.639648 8.00001C0.639648 12.1395 3.9951 15.5 8.12823 15.5ZM11.3435 8.93009C11.8721 9.33116 11.9758 10.0864 11.5754 10.6158C11.1749 11.1452 10.4209 11.2495 9.89225 10.8484C9.36405 10.4473 9.25993 9.69172 9.66039 9.16271C10.0608 8.6333 10.8149 8.52902 11.3435 8.93009ZM11.1849 5.28757C11.1849 5.28757 11.1797 5.28356 11.1697 5.27594C10.8353 5.02206 10.4136 4.91177 9.99757 4.96911C9.5819 5.02647 9.20587 5.24707 8.95238 5.58236C7.54276 7.44533 5.07153 10.7124 5.07153 10.7124C5.07153 10.7124 5.07673 10.7165 5.08674 10.7241C5.42153 10.978 5.84282 11.0882 6.25889 11.0309C6.67457 10.9735 7.0506 10.753 7.30409 10.4177C8.71371 8.55469 11.1849 5.28757 11.1849 5.28757ZM6.3642 5.15161C6.89241 5.55268 6.99654 6.30789 6.59607 6.8373C6.19561 7.36672 5.44155 7.47099 4.91294 7.06993C4.38474 6.66885 4.28063 5.91324 4.68108 5.38423C5.08154 4.85482 5.8356 4.75055 6.3642 5.15161Z" fill="#0E202F"/>
<path d="M22.6188 3.88281C23.4238 3.88723 24.2087 4.20487 24.8334 4.76196C24.8735 4.79926 24.9214 4.83616 24.9415 4.8871C24.9936 5.02267 24.8574 5.1518 24.7452 5.28776C24.549 5.52439 24.3568 5.77026 24.1606 5.99325C24.0806 6.07788 23.9523 6.06703 23.8443 5.9796C23.2115 5.46583 22.2664 5.28535 21.5457 5.90861C20.7487 6.59404 20.6325 7.853 20.8288 8.84284C20.937 9.39311 21.1971 9.94059 21.6818 10.257C22.2464 10.6276 23.0393 10.5839 23.592 10.2366C23.7442 10.1399 23.8723 10.0236 24.0165 9.90488C24.0925 9.84031 24.2207 9.84914 24.2928 9.92573C24.5451 10.2125 24.7853 10.5097 25.0337 10.8025C25.0456 10.8145 25.0456 10.8153 25.0497 10.8209C25.1017 10.9035 25.0816 11.0122 25.0055 11.092C23.9844 12.1785 22.2304 12.4609 20.8048 11.7298C19.7596 11.1951 19.0708 10.095 18.9026 8.85689C18.8786 8.68804 18.8625 8.51798 18.8545 8.34793C18.8145 7.43029 18.9747 6.49859 19.4472 5.68442C20.0679 4.61316 21.2493 3.89605 22.5709 3.88281C22.5868 3.88281 22.6028 3.88281 22.6188 3.88281Z" fill="#0E202F"/>
<path d="M29.717 5.73318C30.4259 5.74241 31.0907 6.08132 31.383 6.87382C31.5312 7.28011 31.5793 7.7233 31.5833 8.15525C31.5913 9.35484 31.5833 10.554 31.5833 11.7536C31.5833 11.8575 31.4952 11.9502 31.3871 11.9542C30.9025 11.9602 30.4179 11.9542 29.9294 11.9542C29.8252 11.9526 29.7332 11.8655 29.7291 11.7585C29.717 10.6391 29.7332 9.51968 29.7291 8.4003C29.7291 8.0269 29.7371 7.58412 29.3927 7.40042C28.9963 7.19146 28.4717 7.37676 28.2034 7.70965C28.0512 7.89935 27.9671 8.14121 27.9632 8.38626C27.9591 9.50845 27.9632 10.631 27.9632 11.7536C27.9632 11.8571 27.875 11.9502 27.7669 11.9542C27.2823 11.9602 26.7938 11.9542 26.3092 11.9542C26.2051 11.9526 26.113 11.8655 26.1089 11.7585C26.077 9.2265 26.1089 6.69414 26.1089 4.16178C26.1089 4.05871 26.1971 3.96568 26.3052 3.96166C26.7897 3.95564 27.2783 3.96166 27.7629 3.96166C27.867 3.96286 27.9632 4.0543 27.9632 4.16178V6.4499C27.9751 6.43947 27.9871 6.42864 27.9992 6.41821C28.2715 6.1888 28.5718 5.97903 28.8961 5.86112C29.1564 5.76648 29.4367 5.73118 29.717 5.73318Z" fill="#0E202F"/>
<path d="M34.4425 9.50644C34.5467 10.0158 34.8951 10.4802 35.4437 10.6315C35.9923 10.7823 36.5931 10.6499 37.0856 10.38C37.0856 10.38 37.2739 10.3242 37.35 10.4562C37.5061 10.7285 37.6623 11.0024 37.8024 11.272C37.8946 11.4717 37.5741 11.6333 37.2939 11.7629C37.2418 11.7869 37.1898 11.8098 37.1377 11.8318C35.8603 12.3573 34.2384 12.2369 33.2933 11.0373C32.5884 10.1409 32.4564 8.81581 32.8327 7.75138C33.2132 6.67892 34.1902 5.81902 35.3837 5.76608C35.4277 5.76408 35.4758 5.76367 35.5239 5.76367C36.4809 5.77209 37.4701 6.24617 37.8785 7.36354C38.0868 7.93948 38.1308 8.58118 38.0627 9.16633C38.0627 9.17476 38.0628 9.18318 38.0588 9.1916C38.0387 9.36006 37.8865 9.50284 37.7064 9.50644C37.0496 9.50965 36.3928 9.50644 35.732 9.50644H34.4425ZM35.5318 7.1975C35.1914 7.1999 34.847 7.36595 34.6468 7.66675C34.5346 7.84002 34.4666 8.04175 34.4305 8.2475L36.501 8.25391C36.493 7.82878 36.3528 7.3503 35.8603 7.23199C35.7521 7.20632 35.6439 7.1975 35.5318 7.1975Z" fill="#0E202F"/>
<path d="M40.5277 5.90889C40.6277 5.91451 40.7119 5.99553 40.72 6.09379L40.7759 6.86585C40.7839 6.85703 40.788 6.84819 40.7919 6.83937C41.1684 6.23455 41.8172 5.75849 42.5299 5.76371C42.558 5.76411 42.59 5.7645 42.6221 5.76571C42.7903 5.77092 42.9705 5.77214 43.1186 5.84794C43.1947 5.88604 43.2387 5.97547 43.2268 6.0585C43.1546 6.47361 43.0705 6.8859 42.9905 7.299C42.9905 7.31264 42.9864 7.31345 42.9864 7.31866C42.9545 7.42494 42.8383 7.47588 42.7102 7.4482C42.2776 7.35475 41.8172 7.41691 41.4648 7.72934C41.1684 7.99285 41.0002 8.39152 40.9922 8.78696C40.9842 9.78403 40.9922 10.7847 40.9922 11.7842C40.9922 11.8884 40.9041 11.9807 40.8 11.9847C40.3114 11.9891 39.8269 11.9847 39.3384 11.9847C39.2342 11.9835 39.1421 11.8965 39.1381 11.7894C39.1021 9.89592 39.1381 8.00248 39.1381 6.10902C39.1421 6.00434 39.2261 5.9125 39.3343 5.90849C39.7307 5.90487 40.1233 5.90849 40.5197 5.90849C40.5237 5.90849 40.5236 5.9085 40.5277 5.90889Z" fill="#0E202F"/>
<path d="M45.2792 5.91174C45.3754 5.91736 45.4594 5.99837 45.4675 6.09664L45.5275 6.86869C45.5395 6.84744 45.5516 6.82658 45.5676 6.80573C45.9359 6.23983 46.5287 5.78419 47.2094 5.76694C47.4337 5.76133 47.674 5.75132 47.8702 5.85078C47.9422 5.88848 47.9864 5.97672 47.9743 6.06135C47.8982 6.47485 47.8182 6.88834 47.7421 7.30184C47.7421 7.30184 47.6619 7.49036 47.5058 7.46107C47.2776 7.41174 47.0412 7.37926 46.8131 7.42859C46.3324 7.53286 45.932 7.91788 45.7959 8.41802C45.6997 8.76093 45.7437 9.13673 45.7437 9.50772C45.7437 9.79609 45.7437 10.0845 45.7437 10.3728V11.7918C45.7397 11.8905 45.7118 11.9049 45.6758 11.9354C45.6437 11.9671 45.5956 11.9855 45.5475 11.9875C45.063 11.992 44.5745 11.9875 44.0899 11.9875C43.9858 11.9863 43.8937 11.8973 43.8896 11.7918V6.10705C43.8937 6.00519 43.9777 5.91535 44.0818 5.91134C44.4783 5.90772 44.8747 5.91134 45.2672 5.91134C45.2752 5.91134 45.2752 5.91135 45.2792 5.91174Z" fill="#0E202F"/>
<path d="M54.1766 5.91941C54.3007 5.92382 54.401 6.06218 54.3609 6.18491L52.3586 12.0289C52.0182 12.9069 51.5897 13.8088 50.7006 14.1686C50.1721 14.3812 49.5594 14.3944 49.0348 14.2693C48.9347 14.2457 48.8385 14.2203 48.7385 14.1935C48.7385 14.1935 48.6703 14.1762 48.6263 14.1265C48.5822 14.074 48.5701 13.9982 48.5902 13.9316C48.7023 13.6003 48.8185 13.2691 48.9306 12.9377C48.9626 12.8491 49.0589 12.7909 49.1549 12.8058C49.1549 12.8058 49.3271 12.8262 49.4031 12.8411C49.7755 12.9109 50.1841 12.7817 50.4164 12.4332C50.4804 12.3393 50.5285 12.2371 50.5685 12.1308C50.5885 12.0762 50.5766 12.1131 50.5885 12.0554C50.6286 11.8777 50.6126 11.69 50.5485 11.5187C49.8557 9.7384 49.1228 7.97288 48.442 6.18812C48.4021 6.0694 48.4941 5.92261 48.6303 5.919C49.1107 5.91659 49.5914 5.91539 50.0719 5.919C50.156 5.92141 50.2322 5.97597 50.2602 6.05217L51.4816 9.49414C51.878 8.34629 52.2545 7.192 52.667 6.05095C52.6709 6.03812 52.6709 6.03772 52.6709 6.03251C52.703 5.96673 52.7751 5.92141 52.8512 5.919C53.2916 5.91539 53.7362 5.90978 54.1766 5.91941Z" fill="#0E202F"/>
</g>
<defs>
<clipPath id="clip0_224_7939">
<rect width="53.7295" height="15" fill="white" transform="translate(0.640625 0.5)"/>
</clipPath>
</defs>
</svg>
