<svg xmlns="http://www.w3.org/2000/svg" version="1.1" xmlns:xlink="http://www.w3.org/1999/xlink" width="32" height="32"><svg width="32" height="32" viewBox="0 0 32 32" fill="none" xmlns="http://www.w3.org/2000/svg">
<rect width="32" height="32" fill="white"></rect>
<g clip-path="url(#clip0_257_16854)">
<path d="M16.0474 3.88006C10.162 2.47742 6.13311 3.86105 7.10341 11.0242C7.83165 14.7083 7.80088 14.7695 6.17209 11.2756C3.28579 3.88006 10.2502 -0.811606 16.0474 3.88006Z" fill="#26AAE1"></path>
<path d="M14.916 4.99328C16.7007 4.17366 18.2926 2.54288 20.3481 2.16899C25.7719 1.51414 28.0551 7.19864 25.3801 11.4404C24.7709 12.5282 24.0672 13.5274 23.4559 14.0006C23.3698 13.9499 23.9298 12.8324 24.498 11.0453C25.8294 7.54718 24.6703 3.60754 20.4671 3.62444C18.5736 3.70471 16.7889 5.21086 14.9181 4.99539L14.916 4.99328Z" fill="#004AAD"></path>
<path d="M21.8053 15.0779C17.5384 16.2017 12.8613 16.4806 8.74414 14.5984C9.17903 14.1738 9.59957 13.7429 10.0037 13.3014C13.5957 15.2849 17.7743 15.38 21.7602 14.8413L21.8032 15.0758L21.8053 15.0779Z" fill="#004AAD"></path>
<path d="M10.4744 15.7243C13.7176 17.5157 17.488 17.6002 21.0862 17.1143L21.1251 17.3277C17.2747 18.3416 13.0529 18.5951 9.33789 16.8946C9.73176 16.5102 10.1092 16.1236 10.4744 15.7243Z" fill="#004AAD"></path>
<path d="M10.945 18.1451C13.8375 19.7421 17.1997 19.8182 20.4101 19.3851L20.445 19.5752C17.011 20.4794 13.2446 20.7054 9.93164 19.1908C10.2824 18.8486 10.6209 18.5021 10.9471 18.1473L10.945 18.1451Z" fill="#26AAE1"></path>
<path d="M11.4138 20.566C13.9555 21.9707 16.9115 22.0362 19.7322 21.656L19.763 21.8229C16.7454 22.6192 13.4344 22.8157 10.5215 21.4849C10.8292 21.1849 11.1266 20.8807 11.4138 20.5681V20.566Z" fill="#26AAE1"></path>
<path d="M19.0848 24.0683C16.5 24.7528 13.6199 24.9239 11.1172 23.7768C11.3839 23.517 11.6382 23.2551 11.8865 22.9847C14.0773 24.1951 16.6272 24.2521 19.0581 23.9247L19.0848 24.0683Z" fill="#26AAE1"></path>
<path d="M19.0848 25.866C16.5 26.5504 13.6199 26.7215 11.1172 25.5745C11.3839 25.3147 11.6382 25.0527 11.8865 24.7823C14.0773 25.9928 16.6272 26.0498 19.0581 25.7224L19.0848 25.866Z" fill="#26AAE1"></path>
<path d="M19.0848 27.6615C16.5 28.346 13.6199 28.5171 11.1172 27.37C11.3839 27.1102 11.6382 26.8483 11.8865 26.5779C14.0773 27.7883 16.6272 27.8453 19.0581 27.5179L19.0848 27.6615Z" fill="#004AAD"></path>
<path d="M19.0848 29.4571C16.5 30.1415 13.6199 30.3126 11.1172 29.1656C11.3839 28.9058 11.6382 28.6438 11.8865 28.3734C14.0773 29.5839 16.6272 29.6409 19.0581 29.3135L19.0848 29.4571Z" fill="#004AAD"></path>
</g>
<defs>
<clipPath id="SvgjsClipPath1251">
<rect width="21" height="28" fill="white" transform="translate(5.5 2)"></rect>
</clipPath>
</defs>
</svg><style>@media (prefers-color-scheme: light) { :root { filter: none; } }
@media (prefers-color-scheme: dark) { :root { filter: none; } }
</style></svg>